M48
;Layer_Color=9474304
;FILE_FORMAT=2:5
INCH,LZ
;TYPE=PLATED
T1F00S00C0.01000
T2F00S00C0.02559
T3F00S00C0.11811
%
T01
X0006119Y0014247
X0008347
X0010573
Y0016535
X0008347
X0006119
Y0018824
X0008347
X0010573
X0019842Y0020118
Y0025039
X0018602Y006126
X0023996Y0061339
X0030354Y0068898
X0029567Y0079016
X0025787Y0080805
X0022362Y0078307
X0019842Y0080984
X0018347Y0089095
Y0093543
Y0097874
X0022795
Y0093543
X0027126
Y0097874
X0027716Y0105591
X0029685Y0107559
X0025748
X0023779Y0105433
X0032047Y0105197
X0035Y0105276
X0035386Y0093506
X0035157Y0090006
X0027126Y0089095
X0022795
X0010465Y008525
X0003702Y0085656
X0003487Y0090369
X0003957Y0095445
X0009666
X0008807Y0100433
X0004021Y0105408
X0004843Y0078268
X001252
X0008681Y0072126
X0005919Y0055273
X0011628
X0067756Y0056005
Y0061714
X0060217Y0046181
X0060038Y0096616
Y0114882
X0059231Y0133867
X0050967Y0133642
X0044855Y0131404
X0043803Y0125143
X0038094
X0033002Y0125205
X0027687
X0028828Y0133569
Y0138884
X0020118Y012752
X001081Y0132081
X0008583
X0006356
Y013437
X0008583
X001081
Y0136659
X0008583
X0006356
X0033031Y0117165
X0064172Y0139517
X0078701Y0137362
Y0132441
X0087694Y0131333
X0089921
X0092148
Y0133622
X0089921
X0087694
Y0135911
X0089921
X0092148
X0091767Y0081181
X0091424Y0075105
X0093651
Y0072816
X0091424
X0089197
Y0075105
Y0070528
X0091424
X0093651
X0084743Y0072816
X008063Y0081181
X0078701Y0029961
X0089348Y0019336
X0091575
X0093802
Y0017047
X0091575
X0089348
Y0014759
X0091575
X0093802
X0071627Y0155101
X0065965Y0151496
X006065
X0059231Y0145166
T02
X0049213Y006874
Y008874
T03
X0047244Y0047244
Y0110236
M30
