G04*
G04 #@! TF.GenerationSoftware,Altium Limited,Altium Designer,21.8.1 (53)*
G04*
G04 Layer_Physical_Order=3*
G04 Layer_Color=16440176*
%FSLAX25Y25*%
%MOIN*%
G70*
G04*
G04 #@! TF.SameCoordinates,3953C7C4-12BB-4AEB-9917-3EAA161B92D5*
G04*
G04*
G04 #@! TF.FilePolarity,Positive*
G04*
G01*
G75*
%ADD67C,0.15748*%
%ADD68C,0.04134*%
%ADD70C,0.02000*%
G36*
X96896Y1529D02*
X1529D01*
Y84368D01*
X1911Y84492D01*
X2029Y84500D01*
X2569Y83961D01*
X3304Y83656D01*
X4100D01*
X4835Y83961D01*
X5397Y84523D01*
X5702Y85259D01*
Y86054D01*
X5397Y86789D01*
X4835Y87352D01*
X4100Y87656D01*
X3304D01*
X2569Y87352D01*
X2029Y86813D01*
X1911Y86820D01*
X1529Y86945D01*
Y94774D01*
X2029Y94873D01*
X2262Y94311D01*
X2825Y93749D01*
X3560Y93445D01*
X4355D01*
X5090Y93749D01*
X5653Y94311D01*
X5957Y95047D01*
Y95842D01*
X5653Y96577D01*
X5090Y97140D01*
X4355Y97444D01*
X3560D01*
X2825Y97140D01*
X2262Y96577D01*
X2029Y96016D01*
X1529Y96115D01*
Y155951D01*
X69364D01*
X69642Y155535D01*
X69626Y155499D01*
Y154703D01*
X69931Y153968D01*
X70494Y153405D01*
X71229Y153101D01*
X72024D01*
X72759Y153405D01*
X73322Y153968D01*
X73627Y154703D01*
Y155499D01*
X73611Y155535D01*
X73889Y155951D01*
X96896D01*
X96896Y1529D01*
D02*
G37*
%LPC*%
G36*
X61047Y153496D02*
X60252D01*
X59517Y153192D01*
X58954Y152629D01*
X58650Y151894D01*
Y151098D01*
X58954Y150363D01*
X59517Y149801D01*
X60252Y149496D01*
X61047D01*
X61782Y149801D01*
X62345Y150363D01*
X62650Y151098D01*
Y151894D01*
X62345Y152629D01*
X61782Y153192D01*
X61047Y153496D01*
D02*
G37*
G36*
X59629Y147166D02*
X58833D01*
X58098Y146862D01*
X57535Y146299D01*
X57231Y145564D01*
Y144769D01*
X57535Y144033D01*
X58098Y143471D01*
X58833Y143166D01*
X59629D01*
X60364Y143471D01*
X60926Y144033D01*
X61231Y144769D01*
Y145564D01*
X60926Y146299D01*
X60364Y146862D01*
X59629Y147166D01*
D02*
G37*
G36*
X29226Y140884D02*
X28431D01*
X27695Y140579D01*
X27133Y140017D01*
X26828Y139282D01*
Y138486D01*
X27133Y137751D01*
X27695Y137188D01*
X28431Y136884D01*
X29226D01*
X29961Y137188D01*
X30524Y137751D01*
X30828Y138486D01*
Y139282D01*
X30524Y140017D01*
X29961Y140579D01*
X29226Y140884D01*
D02*
G37*
G36*
X79099Y139362D02*
X78303D01*
X77568Y139058D01*
X77005Y138495D01*
X76701Y137760D01*
Y136964D01*
X77005Y136229D01*
X77568Y135667D01*
X78303Y135362D01*
X79099D01*
X79834Y135667D01*
X80396Y136229D01*
X80701Y136964D01*
Y137760D01*
X80396Y138495D01*
X79834Y139058D01*
X79099Y139362D01*
D02*
G37*
G36*
X59629Y135867D02*
X58833D01*
X58098Y135563D01*
X57535Y135000D01*
X57231Y134265D01*
Y133469D01*
X57535Y132734D01*
X58098Y132172D01*
X58833Y131867D01*
X59629D01*
X60364Y132172D01*
X60926Y132734D01*
X61231Y133469D01*
Y134265D01*
X60926Y135000D01*
X60364Y135563D01*
X59629Y135867D01*
D02*
G37*
G36*
X79099Y134441D02*
X78303D01*
X77568Y134136D01*
X77005Y133574D01*
X76701Y132839D01*
Y132043D01*
X77005Y131308D01*
X77568Y130745D01*
X78303Y130441D01*
X79099D01*
X79834Y130745D01*
X80396Y131308D01*
X80701Y132043D01*
Y132839D01*
X80396Y133574D01*
X79834Y134136D01*
X79099Y134441D01*
D02*
G37*
G36*
X45252Y133404D02*
X44457D01*
X43722Y133099D01*
X43159Y132536D01*
X42854Y131801D01*
Y131006D01*
X43159Y130271D01*
X43722Y129708D01*
X44457Y129403D01*
X45252D01*
X45987Y129708D01*
X46550Y130271D01*
X46854Y131006D01*
Y131801D01*
X46550Y132536D01*
X45987Y133099D01*
X45252Y133404D01*
D02*
G37*
G36*
X20516Y129520D02*
X19720D01*
X18985Y129215D01*
X18423Y128653D01*
X18118Y127918D01*
Y127122D01*
X18423Y126387D01*
X18985Y125824D01*
X19720Y125520D01*
X20516D01*
X21251Y125824D01*
X21814Y126387D01*
X22118Y127122D01*
Y127918D01*
X21814Y128653D01*
X21251Y129215D01*
X20516Y129520D01*
D02*
G37*
G36*
X28084Y127205D02*
X27289D01*
X26554Y126900D01*
X25991Y126337D01*
X25687Y125602D01*
Y124807D01*
X25991Y124072D01*
X26554Y123509D01*
X27289Y123205D01*
X28084D01*
X28820Y123509D01*
X29382Y124072D01*
X29687Y124807D01*
Y125602D01*
X29382Y126337D01*
X28820Y126900D01*
X28084Y127205D01*
D02*
G37*
G36*
X44201Y127143D02*
X43405D01*
X42670Y126839D01*
X42108Y126276D01*
X41803Y125541D01*
Y124746D01*
X42108Y124010D01*
X42670Y123448D01*
X43405Y123143D01*
X44201D01*
X44936Y123448D01*
X45499Y124010D01*
X45803Y124746D01*
Y125541D01*
X45499Y126276D01*
X44936Y126839D01*
X44201Y127143D01*
D02*
G37*
G36*
X38492D02*
X37697D01*
X36962Y126839D01*
X36399Y126276D01*
X36094Y125541D01*
Y124746D01*
X36399Y124010D01*
X36962Y123448D01*
X37697Y123143D01*
X38492D01*
X39227Y123448D01*
X39790Y124010D01*
X40095Y124746D01*
Y125541D01*
X39790Y126276D01*
X39227Y126839D01*
X38492Y127143D01*
D02*
G37*
G36*
X60436Y116882D02*
X59640D01*
X58905Y116578D01*
X58342Y116015D01*
X58038Y115280D01*
Y114485D01*
X58342Y113750D01*
X58905Y113187D01*
X59640Y112882D01*
X60436D01*
X61171Y113187D01*
X61734Y113750D01*
X62038Y114485D01*
Y115280D01*
X61734Y116015D01*
X61171Y116578D01*
X60436Y116882D01*
D02*
G37*
G36*
X30083Y109559D02*
X29287D01*
X28552Y109255D01*
X27990Y108692D01*
X27966Y108636D01*
X27466D01*
X27444Y108692D01*
X26881Y109255D01*
X26146Y109559D01*
X25350D01*
X24615Y109255D01*
X24053Y108692D01*
X23748Y107957D01*
Y107433D01*
X23382D01*
X22647Y107129D01*
X22084Y106566D01*
X21779Y105831D01*
Y105035D01*
X22084Y104300D01*
X22647Y103738D01*
X23382Y103433D01*
X24177D01*
X24912Y103738D01*
X25475Y104300D01*
X25510Y104385D01*
X25791Y104425D01*
X26064Y104415D01*
X26584Y103895D01*
X27319Y103591D01*
X28114D01*
X28849Y103895D01*
X29412Y104458D01*
X29550Y104791D01*
X29873Y104796D01*
X30071Y104742D01*
X30352Y104064D01*
X30914Y103501D01*
X31649Y103197D01*
X32445D01*
X33180Y103501D01*
X33563Y103884D01*
X33867Y103580D01*
X34602Y103276D01*
X35398D01*
X36133Y103580D01*
X36696Y104143D01*
X37000Y104878D01*
Y105673D01*
X36696Y106409D01*
X36133Y106971D01*
X35398Y107276D01*
X34602D01*
X33867Y106971D01*
X33484Y106588D01*
X33180Y106892D01*
X32445Y107197D01*
X31685D01*
Y107957D01*
X31381Y108692D01*
X30818Y109255D01*
X30083Y109559D01*
D02*
G37*
G36*
X9205Y102433D02*
X8409D01*
X7674Y102129D01*
X7112Y101566D01*
X6807Y100831D01*
Y100035D01*
X7112Y99300D01*
X7674Y98738D01*
X8409Y98433D01*
X9205D01*
X9940Y98738D01*
X10503Y99300D01*
X10807Y100035D01*
Y100831D01*
X10503Y101566D01*
X9940Y102129D01*
X9205Y102433D01*
D02*
G37*
G36*
X60436Y98616D02*
X59640D01*
X58905Y98311D01*
X58342Y97749D01*
X58038Y97013D01*
Y96218D01*
X58342Y95483D01*
X58905Y94920D01*
X59640Y94616D01*
X60436D01*
X61171Y94920D01*
X61734Y95483D01*
X62038Y96218D01*
Y97013D01*
X61734Y97749D01*
X61171Y98311D01*
X60436Y98616D01*
D02*
G37*
G36*
X10064Y97444D02*
X9268D01*
X8533Y97140D01*
X7971Y96577D01*
X7666Y95842D01*
Y95047D01*
X7971Y94311D01*
X8533Y93749D01*
X9268Y93445D01*
X10064D01*
X10799Y93749D01*
X11362Y94311D01*
X11666Y95047D01*
Y95842D01*
X11362Y96577D01*
X10799Y97140D01*
X10064Y97444D01*
D02*
G37*
G36*
X35783Y95506D02*
X34988D01*
X34253Y95201D01*
X33690Y94639D01*
X33386Y93904D01*
Y93108D01*
X33690Y92373D01*
X33880Y92183D01*
X34025Y91702D01*
X33867Y91543D01*
X33462Y91139D01*
X33158Y90404D01*
Y89608D01*
X33462Y88873D01*
X34025Y88310D01*
X34760Y88006D01*
X35555D01*
X36290Y88310D01*
X36853Y88873D01*
X37157Y89608D01*
Y90404D01*
X36853Y91139D01*
X36663Y91329D01*
X36518Y91810D01*
X36677Y91969D01*
X37081Y92373D01*
X37386Y93108D01*
Y93904D01*
X37081Y94639D01*
X36518Y95201D01*
X35783Y95506D01*
D02*
G37*
G36*
X52280Y91807D02*
X46146D01*
Y85673D01*
X52280D01*
Y91807D01*
D02*
G37*
G36*
X10863Y87250D02*
X10067D01*
X9332Y86946D01*
X8770Y86383D01*
X8465Y85648D01*
Y84853D01*
X8770Y84118D01*
X9332Y83555D01*
X10067Y83250D01*
X10863D01*
X11598Y83555D01*
X12161Y84118D01*
X12465Y84853D01*
Y85648D01*
X12161Y86383D01*
X11598Y86946D01*
X10863Y87250D01*
D02*
G37*
G36*
X92165Y83181D02*
X91370D01*
X90635Y82877D01*
X90072Y82314D01*
X89767Y81579D01*
Y80783D01*
X90072Y80048D01*
X90635Y79486D01*
X91370Y79181D01*
X92165D01*
X92900Y79486D01*
X93463Y80048D01*
X93767Y80783D01*
Y81579D01*
X93463Y82314D01*
X92900Y82877D01*
X92165Y83181D01*
D02*
G37*
G36*
X81028D02*
X80232D01*
X79497Y82877D01*
X78934Y82314D01*
X78630Y81579D01*
Y80783D01*
X78934Y80048D01*
X79497Y79486D01*
X80232Y79181D01*
X81028D01*
X81763Y79486D01*
X82325Y80048D01*
X82630Y80783D01*
Y81579D01*
X82325Y82314D01*
X81763Y82877D01*
X81028Y83181D01*
D02*
G37*
G36*
X20240Y82984D02*
X19445D01*
X18710Y82680D01*
X18147Y82117D01*
X17842Y81382D01*
Y80586D01*
X18147Y79851D01*
X18710Y79289D01*
X19445Y78984D01*
X19937D01*
X20304Y78743D01*
X20362Y78522D01*
Y77909D01*
X20667Y77174D01*
X21229Y76612D01*
X21964Y76307D01*
X22760D01*
X23495Y76612D01*
X24058Y77174D01*
X24362Y77909D01*
Y78705D01*
X24349Y78736D01*
X24453Y78863D01*
X24753Y79069D01*
X25390Y78805D01*
X26185D01*
X26920Y79110D01*
X27067Y79256D01*
X27567Y79049D01*
Y78618D01*
X27871Y77883D01*
X28434Y77320D01*
X29169Y77016D01*
X29965D01*
X30700Y77320D01*
X31262Y77883D01*
X31567Y78618D01*
Y79414D01*
X31262Y80149D01*
X30700Y80711D01*
X29965Y81016D01*
X29169D01*
X28434Y80711D01*
X28287Y80565D01*
X27787Y80772D01*
Y81203D01*
X27483Y81938D01*
X26920Y82501D01*
X26185Y82805D01*
X25390D01*
X24655Y82501D01*
X24092Y81938D01*
X23787Y81203D01*
Y80407D01*
X23800Y80376D01*
X23696Y80249D01*
X23397Y80043D01*
X22760Y80307D01*
X22268D01*
X21901Y80548D01*
X21843Y80769D01*
Y81382D01*
X21538Y82117D01*
X20975Y82680D01*
X20240Y82984D01*
D02*
G37*
G36*
X94049Y77105D02*
X93253D01*
X92538Y76809D01*
X91822Y77105D01*
X91026D01*
X90311Y76809D01*
X89595Y77105D01*
X88799D01*
X88064Y76801D01*
X87502Y76238D01*
X87197Y75503D01*
Y74707D01*
X87502Y73972D01*
X87513Y73961D01*
X87502Y73949D01*
X87220Y73270D01*
X86970Y73241D01*
X86720Y73270D01*
X86439Y73949D01*
X85876Y74512D01*
X85141Y74816D01*
X84345D01*
X83610Y74512D01*
X83047Y73949D01*
X82743Y73214D01*
Y72419D01*
X83047Y71684D01*
X83610Y71121D01*
X84345Y70816D01*
X85141D01*
X85876Y71121D01*
X86439Y71684D01*
X86720Y72363D01*
X86970Y72392D01*
X87220Y72363D01*
X87502Y71684D01*
X87513Y71672D01*
X87502Y71661D01*
X87197Y70925D01*
Y70130D01*
X87502Y69395D01*
X88064Y68832D01*
X88799Y68528D01*
X89595D01*
X90311Y68824D01*
X91026Y68528D01*
X91822D01*
X92538Y68824D01*
X93253Y68528D01*
X94049D01*
X94784Y68832D01*
X95347Y69395D01*
X95651Y70130D01*
Y70925D01*
X95347Y71661D01*
X95335Y71672D01*
X95347Y71684D01*
X95651Y72419D01*
Y73214D01*
X95347Y73949D01*
X95335Y73961D01*
X95347Y73972D01*
X95651Y74707D01*
Y75503D01*
X95347Y76238D01*
X94784Y76801D01*
X94049Y77105D01*
D02*
G37*
G36*
X12918Y80268D02*
X12122D01*
X11387Y79963D01*
X10824Y79401D01*
X10520Y78666D01*
Y77870D01*
X10824Y77135D01*
X11387Y76572D01*
X12122Y76268D01*
X12918D01*
X13653Y76572D01*
X14215Y77135D01*
X14520Y77870D01*
Y78666D01*
X14215Y79401D01*
X13653Y79963D01*
X12918Y80268D01*
D02*
G37*
G36*
X5240D02*
X4445D01*
X3710Y79963D01*
X3147Y79401D01*
X2843Y78666D01*
Y77870D01*
X3147Y77135D01*
X3710Y76572D01*
X4445Y76268D01*
X5240D01*
X5975Y76572D01*
X6538Y77135D01*
X6842Y77870D01*
Y78666D01*
X6538Y79401D01*
X5975Y79963D01*
X5240Y80268D01*
D02*
G37*
G36*
X9079Y74126D02*
X8283D01*
X7548Y73822D01*
X6986Y73259D01*
X6681Y72524D01*
Y71728D01*
X6986Y70993D01*
X7548Y70430D01*
X8283Y70126D01*
X9079D01*
X9814Y70430D01*
X10377Y70993D01*
X10681Y71728D01*
Y72524D01*
X10377Y73259D01*
X9814Y73822D01*
X9079Y74126D01*
D02*
G37*
G36*
X30752Y70898D02*
X29956D01*
X29221Y70593D01*
X28659Y70031D01*
X28354Y69296D01*
Y68500D01*
X28659Y67765D01*
X29221Y67202D01*
X29956Y66898D01*
X30752D01*
X31487Y67202D01*
X32050Y67765D01*
X32354Y68500D01*
Y69296D01*
X32050Y70031D01*
X31487Y70593D01*
X30752Y70898D01*
D02*
G37*
G36*
X68154Y63714D02*
X67358D01*
X66623Y63410D01*
X66060Y62847D01*
X65756Y62112D01*
Y61316D01*
X66060Y60581D01*
X66623Y60018D01*
X67358Y59714D01*
X68154D01*
X68889Y60018D01*
X69451Y60581D01*
X69756Y61316D01*
Y62112D01*
X69451Y62847D01*
X68889Y63410D01*
X68154Y63714D01*
D02*
G37*
G36*
X19000Y63260D02*
X18204D01*
X17470Y62955D01*
X16907Y62393D01*
X16602Y61658D01*
Y60862D01*
X16907Y60127D01*
X17470Y59564D01*
X18204Y59260D01*
X19000D01*
X19735Y59564D01*
X20298Y60127D01*
X20602Y60862D01*
Y61658D01*
X20298Y62393D01*
X19735Y62955D01*
X19000Y63260D01*
D02*
G37*
G36*
X68154Y58005D02*
X67358D01*
X66623Y57701D01*
X66060Y57138D01*
X65756Y56403D01*
Y55607D01*
X66060Y54872D01*
X66623Y54310D01*
X67358Y54005D01*
X68154D01*
X68889Y54310D01*
X69451Y54872D01*
X69756Y55607D01*
Y56403D01*
X69451Y57138D01*
X68889Y57701D01*
X68154Y58005D01*
D02*
G37*
G36*
X12026Y57273D02*
X11230D01*
X10495Y56969D01*
X9932Y56406D01*
X9628Y55671D01*
Y54876D01*
X9932Y54141D01*
X10495Y53578D01*
X11230Y53273D01*
X12026D01*
X12761Y53578D01*
X13323Y54141D01*
X13628Y54876D01*
Y55671D01*
X13323Y56406D01*
X12761Y56969D01*
X12026Y57273D01*
D02*
G37*
G36*
X6317D02*
X5521D01*
X4786Y56969D01*
X4224Y56406D01*
X3919Y55671D01*
Y54876D01*
X4224Y54141D01*
X4786Y53578D01*
X5521Y53273D01*
X6317D01*
X7052Y53578D01*
X7615Y54141D01*
X7919Y54876D01*
Y55671D01*
X7615Y56406D01*
X7052Y56969D01*
X6317Y57273D01*
D02*
G37*
G36*
X60615Y48182D02*
X59820D01*
X59085Y47877D01*
X58522Y47314D01*
X58218Y46579D01*
Y45784D01*
X58522Y45049D01*
X59085Y44486D01*
X59820Y44181D01*
X60615D01*
X61350Y44486D01*
X61913Y45049D01*
X62217Y45784D01*
Y46579D01*
X61913Y47314D01*
X61350Y47877D01*
X60615Y48182D01*
D02*
G37*
G36*
X79099Y31961D02*
X78303D01*
X77568Y31656D01*
X77005Y31093D01*
X76701Y30358D01*
Y29563D01*
X77005Y28828D01*
X77568Y28265D01*
X78303Y27961D01*
X79099D01*
X79834Y28265D01*
X80396Y28828D01*
X80701Y29563D01*
Y30358D01*
X80396Y31093D01*
X79834Y31656D01*
X79099Y31961D01*
D02*
G37*
G36*
X20240Y27039D02*
X19445D01*
X18710Y26735D01*
X18147Y26172D01*
X17842Y25437D01*
Y24642D01*
X18147Y23907D01*
X18710Y23344D01*
X19445Y23039D01*
X20240D01*
X20975Y23344D01*
X21538Y23907D01*
X21843Y24642D01*
Y25437D01*
X21538Y26172D01*
X20975Y26735D01*
X20240Y27039D01*
D02*
G37*
G36*
Y22118D02*
X19445D01*
X18710Y21814D01*
X18147Y21251D01*
X17842Y20516D01*
Y19720D01*
X18147Y18985D01*
X18710Y18423D01*
X19445Y18118D01*
X20240D01*
X20975Y18423D01*
X21538Y18985D01*
X21843Y19720D01*
Y20516D01*
X21538Y21251D01*
X20975Y21814D01*
X20240Y22118D01*
D02*
G37*
%LPD*%
D67*
X47244Y110236D02*
D03*
Y47244D02*
D03*
D68*
X49213Y68740D02*
D03*
D70*
X50967Y133642D02*
D03*
X92148Y135911D02*
D03*
Y131333D02*
D03*
X87694Y135911D02*
D03*
X89921D02*
D03*
Y133622D02*
D03*
Y131333D02*
D03*
X87694D02*
D03*
X92148Y133622D02*
D03*
X87694D02*
D03*
X33031Y117165D02*
D03*
X27126Y93543D02*
D03*
X18347D02*
D03*
X22795D02*
D03*
X18347Y89095D02*
D03*
Y97874D02*
D03*
X27126Y89095D02*
D03*
Y97874D02*
D03*
X22795D02*
D03*
Y89095D02*
D03*
X4021Y105408D02*
D03*
X33002Y125205D02*
D03*
X64172Y139517D02*
D03*
X65965Y151496D02*
D03*
X23996Y61339D02*
D03*
X3487Y90369D02*
D03*
X93802Y19336D02*
D03*
Y14759D02*
D03*
X89348Y19336D02*
D03*
X91575D02*
D03*
Y17047D02*
D03*
Y14759D02*
D03*
X89348D02*
D03*
X93802Y17047D02*
D03*
X89348D02*
D03*
X6119Y16535D02*
D03*
X10573D02*
D03*
X6119Y14247D02*
D03*
X8347D02*
D03*
Y16535D02*
D03*
Y18824D02*
D03*
X6119D02*
D03*
X10573Y14247D02*
D03*
Y18824D02*
D03*
X6356Y134370D02*
D03*
X10810D02*
D03*
X6356Y132081D02*
D03*
X8583D02*
D03*
Y134370D02*
D03*
Y136659D02*
D03*
X6356D02*
D03*
X10810Y132081D02*
D03*
Y136659D02*
D03*
X28828Y133569D02*
D03*
M02*
