G04*
G04 #@! TF.GenerationSoftware,Altium Limited,Altium Designer,21.8.1 (53)*
G04*
G04 Layer_Color=8388736*
%FSLAX25Y25*%
%MOIN*%
G70*
G04*
G04 #@! TF.SameCoordinates,3953C7C4-12BB-4AEB-9917-3EAA161B92D5*
G04*
G04*
G04 #@! TF.FilePolarity,Negative*
G04*
G01*
G75*
%ADD37R,0.04737X0.02965*%
G04:AMPARAMS|DCode=38|XSize=55.64mil|YSize=31.23mil|CornerRadius=9.81mil|HoleSize=0mil|Usage=FLASHONLY|Rotation=270.000|XOffset=0mil|YOffset=0mil|HoleType=Round|Shape=RoundedRectangle|*
%AMROUNDEDRECTD38*
21,1,0.05564,0.01161,0,0,270.0*
21,1,0.03602,0.03123,0,0,270.0*
1,1,0.01961,-0.00581,-0.01801*
1,1,0.01961,-0.00581,0.01801*
1,1,0.01961,0.00581,0.01801*
1,1,0.01961,0.00581,-0.01801*
%
%ADD38ROUNDEDRECTD38*%
%ADD39R,0.03950X0.09265*%
%ADD40R,0.03583X0.03583*%
%ADD41R,0.14173X0.14173*%
G04:AMPARAMS|DCode=42|XSize=37.8mil|YSize=13.78mil|CornerRadius=4.63mil|HoleSize=0mil|Usage=FLASHONLY|Rotation=270.000|XOffset=0mil|YOffset=0mil|HoleType=Round|Shape=RoundedRectangle|*
%AMROUNDEDRECTD42*
21,1,0.03780,0.00453,0,0,270.0*
21,1,0.02854,0.01378,0,0,270.0*
1,1,0.00925,-0.00226,-0.01427*
1,1,0.00925,-0.00226,0.01427*
1,1,0.00925,0.00226,0.01427*
1,1,0.00925,0.00226,-0.01427*
%
%ADD42ROUNDEDRECTD42*%
G04:AMPARAMS|DCode=43|XSize=37.8mil|YSize=13.78mil|CornerRadius=4.63mil|HoleSize=0mil|Usage=FLASHONLY|Rotation=180.000|XOffset=0mil|YOffset=0mil|HoleType=Round|Shape=RoundedRectangle|*
%AMROUNDEDRECTD43*
21,1,0.03780,0.00453,0,0,180.0*
21,1,0.02854,0.01378,0,0,180.0*
1,1,0.00925,-0.01427,0.00226*
1,1,0.00925,0.01427,0.00226*
1,1,0.00925,0.01427,-0.00226*
1,1,0.00925,-0.01427,-0.00226*
%
%ADD43ROUNDEDRECTD43*%
%ADD44R,0.03583X0.03583*%
G04:AMPARAMS|DCode=45|XSize=50.79mil|YSize=19.68mil|CornerRadius=3.94mil|HoleSize=0mil|Usage=FLASHONLY|Rotation=90.000|XOffset=0mil|YOffset=0mil|HoleType=Round|Shape=RoundedRectangle|*
%AMROUNDEDRECTD45*
21,1,0.05079,0.01181,0,0,90.0*
21,1,0.04291,0.01968,0,0,90.0*
1,1,0.00787,0.00591,0.02146*
1,1,0.00787,0.00591,-0.02146*
1,1,0.00787,-0.00591,-0.02146*
1,1,0.00787,-0.00591,0.02146*
%
%ADD45ROUNDEDRECTD45*%
G04:AMPARAMS|DCode=46|XSize=55.64mil|YSize=31.23mil|CornerRadius=9.81mil|HoleSize=0mil|Usage=FLASHONLY|Rotation=0.000|XOffset=0mil|YOffset=0mil|HoleType=Round|Shape=RoundedRectangle|*
%AMROUNDEDRECTD46*
21,1,0.05564,0.01161,0,0,0.0*
21,1,0.03602,0.03123,0,0,0.0*
1,1,0.01961,0.01801,-0.00581*
1,1,0.01961,-0.01801,-0.00581*
1,1,0.01961,-0.01801,0.00581*
1,1,0.01961,0.01801,0.00581*
%
%ADD46ROUNDEDRECTD46*%
%ADD47R,0.03950X0.02965*%
%ADD48R,0.02965X0.03950*%
%ADD49R,0.10131X0.14068*%
G04:AMPARAMS|DCode=50|XSize=61.81mil|YSize=22.84mil|CornerRadius=4.33mil|HoleSize=0mil|Usage=FLASHONLY|Rotation=270.000|XOffset=0mil|YOffset=0mil|HoleType=Round|Shape=RoundedRectangle|*
%AMROUNDEDRECTD50*
21,1,0.06181,0.01417,0,0,270.0*
21,1,0.05315,0.02284,0,0,270.0*
1,1,0.00866,-0.00709,-0.02657*
1,1,0.00866,-0.00709,0.02657*
1,1,0.00866,0.00709,0.02657*
1,1,0.00866,0.00709,-0.02657*
%
%ADD50ROUNDEDRECTD50*%
%ADD51R,0.06004X0.06791*%
G04:AMPARAMS|DCode=52|XSize=37.01mil|YSize=14.57mil|CornerRadius=4.63mil|HoleSize=0mil|Usage=FLASHONLY|Rotation=270.000|XOffset=0mil|YOffset=0mil|HoleType=Round|Shape=RoundedRectangle|*
%AMROUNDEDRECTD52*
21,1,0.03701,0.00532,0,0,270.0*
21,1,0.02776,0.01457,0,0,270.0*
1,1,0.00925,-0.00266,-0.01388*
1,1,0.00925,-0.00266,0.01388*
1,1,0.00925,0.00266,0.01388*
1,1,0.00925,0.00266,-0.01388*
%
%ADD52ROUNDEDRECTD52*%
%ADD53R,0.03740X0.01772*%
%ADD54C,0.04737*%
%ADD55R,0.03202X0.03320*%
%ADD56R,0.03600X0.02550*%
%ADD57C,0.16548*%
%ADD58C,0.04934*%
%ADD59R,0.04934X0.04934*%
G36*
X2220Y724D02*
Y9591D01*
X14631D01*
Y724D01*
X2220D01*
D02*
G37*
G36*
X16393Y13322D02*
Y17072D01*
X23292D01*
Y13322D01*
X16393D01*
D02*
G37*
G36*
Y18243D02*
Y21993D01*
X23292D01*
Y18243D01*
X16393D01*
D02*
G37*
G36*
Y23165D02*
Y26914D01*
X23292D01*
Y23165D01*
X16393D01*
D02*
G37*
G36*
Y28086D02*
Y31835D01*
X23292D01*
Y28086D01*
X16393D01*
D02*
G37*
G36*
X2220Y40487D02*
Y49355D01*
X14631D01*
Y40487D01*
X2220D01*
D02*
G37*
G36*
X16393Y33007D02*
Y36757D01*
X23292D01*
Y33007D01*
X16393D01*
D02*
G37*
G36*
X82150Y17072D02*
Y13322D01*
X75251D01*
Y17072D01*
X82150D01*
D02*
G37*
G36*
X96324Y9591D02*
Y724D01*
X83913D01*
Y9591D01*
X96324D01*
D02*
G37*
G36*
X82150Y21993D02*
Y18243D01*
X75251D01*
Y21993D01*
X82150D01*
D02*
G37*
G36*
Y26914D02*
Y23165D01*
X75251D01*
Y26914D01*
X82150D01*
D02*
G37*
G36*
Y31835D02*
Y28086D01*
X75251D01*
Y31835D01*
X82150D01*
D02*
G37*
G36*
Y36757D02*
Y33007D01*
X75251D01*
Y36757D01*
X82150D01*
D02*
G37*
G36*
X96324Y49355D02*
Y40487D01*
X83913D01*
Y49355D01*
X96324D01*
D02*
G37*
G36*
X2495Y108125D02*
Y116993D01*
X14906D01*
Y108125D01*
X2495D01*
D02*
G37*
G36*
X16669Y120724D02*
Y124473D01*
X23568D01*
Y120724D01*
X16669D01*
D02*
G37*
G36*
Y125645D02*
Y129394D01*
X23568D01*
Y125645D01*
X16669D01*
D02*
G37*
G36*
Y130566D02*
Y134316D01*
X23568D01*
Y130566D01*
X16669D01*
D02*
G37*
G36*
Y135487D02*
Y139237D01*
X23568D01*
Y135487D01*
X16669D01*
D02*
G37*
G36*
Y140409D02*
Y144158D01*
X23568D01*
Y140409D01*
X16669D01*
D02*
G37*
G36*
X2495Y147889D02*
Y156757D01*
X14906D01*
Y147889D01*
X2495D01*
D02*
G37*
G36*
X82150Y124473D02*
Y120724D01*
X75251D01*
Y124473D01*
X82150D01*
D02*
G37*
G36*
X96324Y116993D02*
Y108125D01*
X83913D01*
Y116993D01*
X96324D01*
D02*
G37*
G36*
X82150Y129394D02*
Y125645D01*
X75251D01*
Y129394D01*
X82150D01*
D02*
G37*
G36*
Y134316D02*
Y130566D01*
X75251D01*
Y134316D01*
X82150D01*
D02*
G37*
G36*
Y139237D02*
Y135487D01*
X75251D01*
Y139237D01*
X82150D01*
D02*
G37*
G36*
Y144158D02*
Y140409D01*
X75251D01*
Y144158D01*
X82150D01*
D02*
G37*
G36*
X96324Y156757D02*
Y147889D01*
X83913D01*
Y156757D01*
X96324D01*
D02*
G37*
D37*
X19842Y53504D02*
D03*
X28898D02*
D03*
X58740Y39961D02*
D03*
X67795D02*
D03*
D38*
X67698Y56063D02*
D03*
X63958D02*
D03*
X60217D02*
D03*
Y46181D02*
D03*
X67698D02*
D03*
D39*
X67677Y31398D02*
D03*
X55079D02*
D03*
X46417D02*
D03*
X37756D02*
D03*
Y6398D02*
D03*
X46417D02*
D03*
X55079D02*
D03*
X67677D02*
D03*
D40*
X66811Y63543D02*
D03*
X61496D02*
D03*
X79428Y72816D02*
D03*
X84743D02*
D03*
X68759Y72822D02*
D03*
X74074D02*
D03*
X65156Y127671D02*
D03*
X59841D02*
D03*
X65965Y151496D02*
D03*
X60650D02*
D03*
X30315Y74370D02*
D03*
X25000D02*
D03*
X33002Y125205D02*
D03*
X27687D02*
D03*
X3492Y100499D02*
D03*
X8807D02*
D03*
X23996Y61339D02*
D03*
X18681D02*
D03*
X3487Y90369D02*
D03*
X8802D02*
D03*
D41*
X22795Y93543D02*
D03*
D42*
X15905Y103130D02*
D03*
X17874D02*
D03*
X19842D02*
D03*
X21811D02*
D03*
X23779D02*
D03*
X25748D02*
D03*
X27716D02*
D03*
X29685D02*
D03*
Y83957D02*
D03*
X27716D02*
D03*
X25748D02*
D03*
X23779D02*
D03*
X21811D02*
D03*
X19842D02*
D03*
X17874D02*
D03*
X15905D02*
D03*
D43*
X32382Y100433D02*
D03*
Y98465D02*
D03*
Y96496D02*
D03*
Y94528D02*
D03*
Y92559D02*
D03*
Y90591D02*
D03*
Y88622D02*
D03*
Y86654D02*
D03*
X13209D02*
D03*
Y88622D02*
D03*
Y90591D02*
D03*
Y92559D02*
D03*
Y94528D02*
D03*
Y96496D02*
D03*
Y98465D02*
D03*
Y100433D02*
D03*
D44*
X91767Y86496D02*
D03*
Y81181D02*
D03*
X69016Y88740D02*
D03*
Y83425D02*
D03*
X60038Y114882D02*
D03*
Y120197D02*
D03*
X28828Y138884D02*
D03*
Y133569D02*
D03*
X50967Y133642D02*
D03*
Y138956D02*
D03*
D45*
X85748Y81181D02*
D03*
X83189D02*
D03*
X80630D02*
D03*
Y88740D02*
D03*
X83189D02*
D03*
X85748D02*
D03*
X60038Y101670D02*
D03*
X62597D02*
D03*
X65156D02*
D03*
X62597Y109229D02*
D03*
X60038D02*
D03*
X65156D02*
D03*
D46*
X84496Y66399D02*
D03*
Y58918D02*
D03*
X74614D02*
D03*
Y62658D02*
D03*
Y66399D02*
D03*
X44855Y138884D02*
D03*
Y131404D02*
D03*
X34973D02*
D03*
Y135144D02*
D03*
Y138884D02*
D03*
D47*
X60827Y83031D02*
D03*
Y88740D02*
D03*
X70316Y103499D02*
D03*
Y109208D02*
D03*
X65156Y114882D02*
D03*
Y120591D02*
D03*
X71627Y149392D02*
D03*
Y155101D02*
D03*
D48*
X70369Y99092D02*
D03*
X76078D02*
D03*
X5919Y55273D02*
D03*
X11628D02*
D03*
X43803Y125143D02*
D03*
X24646Y68898D02*
D03*
X30354D02*
D03*
X3957Y95445D02*
D03*
X9666D02*
D03*
X4021Y105408D02*
D03*
X9730D02*
D03*
X38094Y125143D02*
D03*
D49*
X49350Y149409D02*
D03*
X30413D02*
D03*
D50*
X12520Y78268D02*
D03*
X9961D02*
D03*
X7402D02*
D03*
X4843D02*
D03*
Y61339D02*
D03*
X7402D02*
D03*
X9961D02*
D03*
X12520D02*
D03*
D51*
X64172Y139517D02*
D03*
D52*
X67125Y133867D02*
D03*
X65156D02*
D03*
X63188D02*
D03*
X61219D02*
D03*
Y145166D02*
D03*
X63188D02*
D03*
X65156D02*
D03*
X67125D02*
D03*
D53*
X35315Y114567D02*
D03*
Y117126D02*
D03*
Y119685D02*
D03*
X27047D02*
D03*
Y114567D02*
D03*
D54*
X91424Y72816D02*
D03*
X91654Y62953D02*
D03*
D55*
X3702Y85656D02*
D03*
X7442D02*
D03*
D56*
X19107Y75392D02*
D03*
Y70442D02*
D03*
D57*
X47244Y110236D02*
D03*
Y47244D02*
D03*
D58*
X49213Y68740D02*
D03*
D59*
Y88740D02*
D03*
M02*
