G04*
G04 #@! TF.GenerationSoftware,Altium Limited,Altium Designer,21.8.1 (53)*
G04*
G04 Layer_Color=2752767*
%FSLAX25Y25*%
%MOIN*%
G70*
G04*
G04 #@! TF.SameCoordinates,3953C7C4-12BB-4AEB-9917-3EAA161B92D5*
G04*
G04*
G04 #@! TF.FilePolarity,Positive*
G04*
G01*
G75*
%ADD72C,0.00200*%
%ADD73C,0.00267*%
D72*
X46444Y109436D02*
Y111036D01*
X48044D01*
Y109436D01*
X46444D01*
Y46444D02*
Y48044D01*
X48044D01*
Y46444D01*
X46444D01*
X67756Y55205D02*
X66956Y56805D01*
X68556D01*
X67756Y55205D01*
Y60914D02*
X66956Y62514D01*
X68556D01*
X67756Y60914D01*
X78701Y29161D02*
X77901Y30761D01*
X79501D01*
X78701Y29161D01*
X60217Y45382D02*
X59417Y46981D01*
X61018D01*
X60217Y45382D01*
X89197Y72016D02*
X88397Y73616D01*
X89997D01*
X89197Y72016D01*
X91424Y74305D02*
X90624Y75905D01*
X92224D01*
X91424Y74305D01*
Y72016D02*
X90624Y73616D01*
X92224D01*
X91424Y72016D01*
Y69728D02*
X90624Y71328D01*
X92224D01*
X91424Y69728D01*
X93651Y72016D02*
X92851Y73616D01*
X94451D01*
X93651Y72016D01*
Y74305D02*
X92851Y75905D01*
X94451D01*
X93651Y74305D01*
Y69728D02*
X92851Y71328D01*
X94451D01*
X93651Y69728D01*
X89197Y74305D02*
X88397Y75905D01*
X89997D01*
X89197Y74305D01*
Y69728D02*
X88397Y71328D01*
X89997D01*
X89197Y69728D01*
X43803Y124343D02*
X43003Y125943D01*
X44603D01*
X43803Y124343D01*
X50967Y132842D02*
X50167Y134442D01*
X51767D01*
X50967Y132842D01*
X44855Y130604D02*
X44054Y132203D01*
X45654D01*
X44855Y130604D01*
X80630Y80381D02*
X79830Y81981D01*
X81430D01*
X80630Y80381D01*
X60038Y95816D02*
X59238Y97416D01*
X60838D01*
X60038Y95816D01*
X71627Y154301D02*
X70827Y155901D01*
X72426D01*
X71627Y154301D01*
X92148Y135111D02*
X91348Y136711D01*
X92948D01*
X92148Y135111D01*
Y130533D02*
X91348Y132133D01*
X92948D01*
X92148Y130533D01*
X87694Y135111D02*
X86894Y136711D01*
X88494D01*
X87694Y135111D01*
X89921D02*
X89121Y136711D01*
X90721D01*
X89921Y135111D01*
Y132822D02*
X89121Y134422D01*
X90721D01*
X89921Y132822D01*
Y130533D02*
X89121Y132133D01*
X90721D01*
X89921Y130533D01*
X87694D02*
X86894Y132133D01*
X88494D01*
X87694Y130533D01*
X92148Y132822D02*
X91348Y134422D01*
X92948D01*
X92148Y132822D01*
X87694D02*
X86894Y134422D01*
X88494D01*
X87694Y132822D01*
X33031Y116365D02*
X32232Y117965D01*
X33832D01*
X33031Y116365D01*
X78701Y131641D02*
X77901Y133241D01*
X79501D01*
X78701Y131641D01*
X91767Y80381D02*
X90967Y81981D01*
X92567D01*
X91767Y80381D01*
X60038Y114082D02*
X59238Y115682D01*
X60838D01*
X60038Y114082D01*
X29567Y78216D02*
X28767Y79816D01*
X30367D01*
X29567Y78216D01*
X27126Y92743D02*
X26326Y94343D01*
X27926D01*
X27126Y92743D01*
X18347D02*
X17547Y94343D01*
X19147D01*
X18347Y92743D01*
X22795D02*
X21995Y94343D01*
X23595D01*
X22795Y92743D01*
X18347Y88295D02*
X17547Y89894D01*
X19147D01*
X18347Y88295D01*
Y97074D02*
X17547Y98674D01*
X19147D01*
X18347Y97074D01*
X27126Y88295D02*
X26326Y89894D01*
X27926D01*
X27126Y88295D01*
Y97074D02*
X26326Y98674D01*
X27926D01*
X27126Y97074D01*
X22795D02*
X21995Y98674D01*
X23595D01*
X22795Y97074D01*
Y88295D02*
X21995Y89894D01*
X23595D01*
X22795Y88295D01*
X4021Y104608D02*
X3221Y106208D01*
X4821D01*
X4021Y104608D01*
X19842Y80184D02*
X19042Y81784D01*
X20642D01*
X19842Y80184D01*
X25787Y80005D02*
X24987Y81605D01*
X26587D01*
X25787Y80005D01*
X22362Y77507D02*
X21562Y79107D01*
X23162D01*
X22362Y77507D01*
X35386Y92706D02*
X34586Y94306D01*
X36186D01*
X35386Y92706D01*
X35000Y104476D02*
X34200Y106076D01*
X35800D01*
X35000Y104476D01*
X10465Y84450D02*
X9665Y86050D01*
X11265D01*
X10465Y84450D01*
X35157Y89206D02*
X34358Y90806D01*
X35958D01*
X35157Y89206D01*
X38094Y124343D02*
X37295Y125943D01*
X38895D01*
X38094Y124343D01*
X33002Y124405D02*
X32202Y126005D01*
X33802D01*
X33002Y124405D01*
X60650Y150696D02*
X59850Y152296D01*
X61450D01*
X60650Y150696D01*
X64172Y138717D02*
X63372Y140317D01*
X64972D01*
X64172Y138717D01*
X65965Y150696D02*
X65165Y152296D01*
X66765D01*
X65965Y150696D01*
X27687Y124405D02*
X26887Y126005D01*
X28487D01*
X27687Y124405D01*
X23779Y104633D02*
X22979Y106233D01*
X24579D01*
X23779Y104633D01*
X23996Y60539D02*
X23196Y62139D01*
X24796D01*
X23996Y60539D01*
X18602Y60460D02*
X17802Y62060D01*
X19402D01*
X18602Y60460D01*
X8807Y99633D02*
X8007Y101233D01*
X9607D01*
X8807Y99633D01*
X3487Y89569D02*
X2687Y91170D01*
X4287D01*
X3487Y89569D01*
X27716Y104791D02*
X26917Y106391D01*
X28517D01*
X27716Y104791D01*
X29685Y106759D02*
X28885Y108359D01*
X30485D01*
X29685Y106759D01*
X3957Y94644D02*
X3158Y96245D01*
X4758D01*
X3957Y94644D01*
X84743Y72016D02*
X83943Y73616D01*
X85543D01*
X84743Y72016D01*
X78701Y136562D02*
X77901Y138162D01*
X79501D01*
X78701Y136562D01*
X93802Y18536D02*
X93002Y20136D01*
X94602D01*
X93802Y18536D01*
Y13959D02*
X93002Y15559D01*
X94602D01*
X93802Y13959D01*
X89348Y18536D02*
X88548Y20136D01*
X90148D01*
X89348Y18536D01*
X91575D02*
X90775Y20136D01*
X92375D01*
X91575Y18536D01*
Y16247D02*
X90775Y17847D01*
X92375D01*
X91575Y16247D01*
Y13959D02*
X90775Y15559D01*
X92375D01*
X91575Y13959D01*
X89348D02*
X88548Y15559D01*
X90148D01*
X89348Y13959D01*
X93802Y16247D02*
X93002Y17847D01*
X94602D01*
X93802Y16247D01*
X89348D02*
X88548Y17847D01*
X90148D01*
X89348Y16247D01*
X6119Y15735D02*
X5319Y17335D01*
X6919D01*
X6119Y15735D01*
X10573D02*
X9774Y17335D01*
X11373D01*
X10573Y15735D01*
X6119Y13447D02*
X5319Y15047D01*
X6919D01*
X6119Y13447D01*
X8347D02*
X7547Y15047D01*
X9146D01*
X8347Y13447D01*
Y15735D02*
X7547Y17335D01*
X9146D01*
X8347Y15735D01*
Y18024D02*
X7547Y19624D01*
X9146D01*
X8347Y18024D01*
X6119D02*
X5319Y19624D01*
X6919D01*
X6119Y18024D01*
X10573Y13447D02*
X9774Y15047D01*
X11373D01*
X10573Y13447D01*
Y18024D02*
X9774Y19624D01*
X11373D01*
X10573Y18024D01*
X6356Y133570D02*
X5556Y135170D01*
X7156D01*
X6356Y133570D01*
X10810D02*
X10010Y135170D01*
X11610D01*
X10810Y133570D01*
X6356Y131281D02*
X5556Y132881D01*
X7156D01*
X6356Y131281D01*
X8583D02*
X7783Y132881D01*
X9383D01*
X8583Y131281D01*
Y133570D02*
X7783Y135170D01*
X9383D01*
X8583Y133570D01*
Y135859D02*
X7783Y137459D01*
X9383D01*
X8583Y135859D01*
X6356D02*
X5556Y137459D01*
X7156D01*
X6356Y135859D01*
X10810Y131281D02*
X10010Y132881D01*
X11610D01*
X10810Y131281D01*
Y135859D02*
X10010Y137459D01*
X11610D01*
X10810Y135859D01*
X19842Y19318D02*
X19042Y20918D01*
X20642D01*
X19842Y19318D01*
Y24239D02*
X19042Y25839D01*
X20642D01*
X19842Y24239D01*
X11628Y54473D02*
X10828Y56073D01*
X12428D01*
X11628Y54473D01*
X5919D02*
X5119Y56073D01*
X6719D01*
X5919Y54473D01*
X20118Y126720D02*
X19318Y128320D01*
X20918D01*
X20118Y126720D01*
X30354Y68098D02*
X29554Y69698D01*
X31154D01*
X30354Y68098D01*
X9666Y94644D02*
X8866Y96245D01*
X10466D01*
X9666Y94644D01*
X32047Y104397D02*
X31247Y105997D01*
X32847D01*
X32047Y104397D01*
X25748Y106759D02*
X24948Y108359D01*
X26548D01*
X25748Y106759D01*
X8681Y71326D02*
X7881Y72926D01*
X9481D01*
X8681Y71326D01*
X59231Y144366D02*
X58431Y145966D01*
X60031D01*
X59231Y144366D01*
Y133067D02*
X58431Y134667D01*
X60031D01*
X59231Y133067D01*
X3702Y84856D02*
X2902Y86456D01*
X4502D01*
X3702Y84856D01*
X12520Y77468D02*
X11720Y79068D01*
X13320D01*
X12520Y77468D01*
X28828Y132769D02*
X28028Y134369D01*
X29628D01*
X28828Y132769D01*
Y138084D02*
X28028Y139684D01*
X29628D01*
X28828Y138084D01*
X4843Y77468D02*
X4042Y79068D01*
X5643D01*
X4843Y77468D01*
D73*
X50013Y68740D02*
G03*
X50013Y68740I-800J0D01*
G01*
Y88740D02*
G03*
X50013Y88740I-800J0D01*
G01*
M02*
