G04*
G04 #@! TF.GenerationSoftware,Altium Limited,Altium Designer,21.8.1 (53)*
G04*
G04 Layer_Color=65535*
%FSLAX25Y25*%
%MOIN*%
G70*
G04*
G04 #@! TF.SameCoordinates,3953C7C4-12BB-4AEB-9917-3EAA161B92D5*
G04*
G04*
G04 #@! TF.FilePolarity,Positive*
G04*
G01*
G75*
%ADD10C,0.00394*%
%ADD11C,0.00787*%
%ADD12C,0.01000*%
%ADD13C,0.01181*%
%ADD14C,0.00984*%
%ADD15C,0.00500*%
%ADD16C,0.00600*%
D10*
X30669Y51240D02*
G03*
X30669Y51240I-197J0D01*
G01*
X69567Y37697D02*
G03*
X69567Y37697I-197J0D01*
G01*
X0Y157480D02*
X98425D01*
X0Y0D02*
Y157480D01*
X98425D02*
X98425Y0D01*
X0D02*
X98425D01*
D11*
X68170Y52343D02*
G03*
X68170Y52343I-394J0D01*
G01*
X88583Y89961D02*
G03*
X88583Y89961I-394J0D01*
G01*
X70461Y66792D02*
G03*
X70461Y66792I-394J0D01*
G01*
X13075Y73803D02*
G03*
X13075Y73803I-394J0D01*
G01*
X69093Y146643D02*
G03*
X69093Y146643I-394J0D01*
G01*
X57991Y100450D02*
G03*
X57991Y100450I-394J0D01*
G01*
X39087Y138962D02*
G03*
X39087Y138962I-394J0D01*
G01*
X20827Y55768D02*
Y56260D01*
X27913Y55768D02*
Y56260D01*
X20827Y50748D02*
Y51240D01*
X27913Y50748D02*
Y51240D01*
X20827Y56260D02*
X27913D01*
X20827Y50748D02*
X27913D01*
X59724Y42224D02*
Y42717D01*
X66811Y42224D02*
Y42717D01*
X59724Y37205D02*
Y37697D01*
X66811Y37205D02*
Y37697D01*
X59724Y42717D02*
X66811D01*
X59724Y37205D02*
X66811D01*
X59646Y85689D02*
Y86083D01*
X62008Y85689D02*
Y86083D01*
X73027Y100273D02*
X73421D01*
X73027Y97910D02*
X73421D01*
X69134Y106157D02*
Y106550D01*
X71497Y106157D02*
Y106550D01*
X63975Y117540D02*
Y117934D01*
X66337Y117540D02*
Y117934D01*
X30197Y113189D02*
X32165D01*
X30197Y121063D02*
X32165D01*
Y113189D02*
Y121063D01*
X30197Y113189D02*
Y121063D01*
X70445Y152050D02*
Y152443D01*
X72808Y152050D02*
Y152443D01*
X8577Y56454D02*
X8970D01*
X8577Y54092D02*
X8970D01*
X27303Y70079D02*
X27697D01*
X27303Y67716D02*
X27697D01*
X6615Y96626D02*
X7009D01*
X6615Y94263D02*
X7009D01*
X6679Y106589D02*
X7072D01*
X6679Y104227D02*
X7072D01*
X40752Y123962D02*
X41146D01*
X40752Y126324D02*
X41146D01*
D12*
X71650Y34898D02*
G03*
X71650Y34898I-434J0D01*
G01*
X16467Y70417D02*
G03*
X16467Y70417I-361J0D01*
G01*
X69468Y60787D02*
Y62795D01*
Y64370D02*
Y66299D01*
X58839Y60787D02*
X69468D01*
X58839D02*
Y66299D01*
X69468D01*
X94523Y78524D02*
Y89153D01*
X89012D02*
X94523D01*
X89012Y78524D02*
Y89153D01*
X92594Y78524D02*
X94523D01*
X89012D02*
X91019D01*
X76771Y75572D02*
X87401D01*
X76771Y70060D02*
Y75572D01*
Y70060D02*
X87401D01*
Y73643D02*
Y75572D01*
Y70060D02*
Y72068D01*
X66102Y73571D02*
Y75578D01*
Y70066D02*
Y71996D01*
Y75578D02*
X76732D01*
Y70066D02*
Y75578D01*
X66102Y70066D02*
X76732D01*
X71772Y80768D02*
Y91398D01*
X66260D02*
X71772D01*
X66260Y80768D02*
Y91398D01*
X69842Y80768D02*
X71772D01*
X66260D02*
X68268D01*
X67814Y124915D02*
Y126923D01*
Y128498D02*
Y130427D01*
X57184Y124915D02*
X67814D01*
X57184D02*
Y130427D01*
X67814D01*
X57282Y112225D02*
X59290D01*
X60865D02*
X62794D01*
X57282D02*
Y122855D01*
X62794D01*
Y112225D02*
Y122855D01*
X57992Y148740D02*
X68622D01*
Y154252D01*
X57992D02*
X68622D01*
X57992Y148740D02*
Y150669D01*
Y152244D02*
Y154252D01*
X32972Y71614D02*
Y73622D01*
Y75197D02*
Y77126D01*
X22343Y71614D02*
X32972D01*
X22343D02*
Y77126D01*
X32972D01*
X25029Y122449D02*
X35659D01*
Y127960D01*
X25029D02*
X35659D01*
X25029Y122449D02*
Y124378D01*
Y125952D02*
Y127960D01*
X29576Y141541D02*
X31584D01*
X26072D02*
X28002D01*
X31584Y130911D02*
Y141541D01*
X26072Y130911D02*
X31584D01*
X26072D02*
Y141541D01*
X48211Y130984D02*
Y141614D01*
Y130984D02*
X53723D01*
Y141614D01*
X48211D02*
X50140D01*
X51715D02*
X53723D01*
X835Y103255D02*
X11464D01*
X835Y97743D02*
Y103255D01*
Y97743D02*
X11464D01*
Y101326D02*
Y103255D01*
Y97743D02*
Y99751D01*
X16024Y58583D02*
X26654D01*
Y64095D01*
X16024D02*
X26654D01*
X16024Y58583D02*
Y60512D01*
Y62087D02*
Y64095D01*
X830Y93125D02*
X11460D01*
X830Y87614D02*
Y93125D01*
Y87614D02*
X11460D01*
Y91196D02*
Y93125D01*
Y87614D02*
Y89622D01*
D13*
X12953Y103583D02*
G03*
X12953Y103583I-197J0D01*
G01*
D14*
X35807Y111713D02*
G03*
X35807Y111713I-492J0D01*
G01*
D15*
X69666Y49823D02*
Y52422D01*
X62639Y47973D02*
X65277D01*
X58249Y49823D02*
Y52422D01*
X31457Y103583D02*
X32835D01*
Y102205D02*
Y103583D01*
Y83504D02*
Y84882D01*
X31457Y83504D02*
X32835D01*
X12756D02*
X14134D01*
X12756D02*
Y84882D01*
Y102205D02*
Y103583D01*
X14134D01*
X78583Y82500D02*
Y87421D01*
X87795Y82500D02*
Y87421D01*
X78256Y56950D02*
X80854D01*
X82705Y61339D02*
Y63977D01*
X78256Y68367D02*
X80854D01*
X36339Y142795D02*
X43425D01*
X36339Y156024D02*
X43425D01*
X14724Y63898D02*
Y75709D01*
X2638Y63898D02*
Y75709D01*
X77913Y145118D02*
Y154882D01*
Y110000D02*
Y119764D01*
X98386Y110000D02*
Y154882D01*
X77913Y110000D02*
X83031D01*
X77913Y154882D02*
X83031D01*
X74606Y117677D02*
X76968D01*
X74606D02*
X75787Y119646D01*
X76968Y117677D01*
X97402Y110000D02*
X98386D01*
X97402Y154882D02*
X98386D01*
X20906Y110000D02*
Y119764D01*
Y145118D02*
Y154882D01*
X433Y110000D02*
Y154882D01*
X15787D02*
X20906D01*
X15787Y110000D02*
X20906D01*
X21850Y147205D02*
X24213D01*
X23031Y145236D02*
X24213Y147205D01*
X21850D02*
X23031Y145236D01*
X433Y154882D02*
X1417D01*
X433Y110000D02*
X1417D01*
X59447Y133611D02*
Y145422D01*
X68896Y133611D02*
Y145422D01*
X57991Y102989D02*
Y107910D01*
X67203Y102989D02*
Y107910D01*
X97402Y47480D02*
X98386D01*
X97402Y2598D02*
X98386D01*
X75787Y12244D02*
X76968Y10276D01*
X74606D02*
X75787Y12244D01*
X74606Y10276D02*
X76968D01*
X77913Y47480D02*
X83031D01*
X77913Y2598D02*
X83031D01*
X98386D02*
Y47480D01*
X77913Y2598D02*
Y12362D01*
Y37716D02*
Y47480D01*
X38614Y129435D02*
X41213D01*
X43063Y133825D02*
Y136462D01*
X38614Y140852D02*
X41213D01*
X158Y2598D02*
X1142D01*
X158Y47480D02*
X1142D01*
X21575Y39803D02*
X22756Y37835D01*
X23937Y39803D01*
X21575D02*
X23937D01*
X15512Y2598D02*
X20630D01*
X15512Y47480D02*
X20630D01*
X158Y2598D02*
Y47480D01*
X20630Y37716D02*
Y47480D01*
Y2598D02*
Y12362D01*
D16*
X70217Y33398D02*
X72216D01*
Y3898D02*
Y33398D01*
X70217Y3898D02*
X72216D01*
X32717D02*
X35403D01*
X57717D02*
X65216D01*
X48717D02*
X52716D01*
X40216D02*
X44216D01*
X57717Y33398D02*
X65216D01*
X48717D02*
X52716D01*
X40216D02*
X44216D01*
X32717Y3898D02*
Y33398D01*
X35403D01*
X16857Y72314D02*
Y73520D01*
X21357Y72314D02*
Y73520D01*
X19049Y72881D02*
X19549Y73381D01*
X18549D02*
X19049Y72881D01*
X18549Y73381D02*
X19549D01*
X18506Y72380D02*
X19506D01*
M02*
