G04*
G04 #@! TF.GenerationSoftware,Altium Limited,Altium Designer,21.8.1 (53)*
G04*
G04 Layer_Physical_Order=1*
G04 Layer_Color=255*
%FSLAX25Y25*%
%MOIN*%
G70*
G04*
G04 #@! TF.SameCoordinates,3953C7C4-12BB-4AEB-9917-3EAA161B92D5*
G04*
G04*
G04 #@! TF.FilePolarity,Positive*
G04*
G01*
G75*
%ADD12C,0.01000*%
%ADD15C,0.00500*%
%ADD17R,0.03937X0.02165*%
G04:AMPARAMS|DCode=18|XSize=47.64mil|YSize=23.23mil|CornerRadius=5.81mil|HoleSize=0mil|Usage=FLASHONLY|Rotation=270.000|XOffset=0mil|YOffset=0mil|HoleType=Round|Shape=RoundedRectangle|*
%AMROUNDEDRECTD18*
21,1,0.04764,0.01161,0,0,270.0*
21,1,0.03602,0.02323,0,0,270.0*
1,1,0.01161,-0.00581,-0.01801*
1,1,0.01161,-0.00581,0.01801*
1,1,0.01161,0.00581,0.01801*
1,1,0.01161,0.00581,-0.01801*
%
%ADD18ROUNDEDRECTD18*%
%ADD19R,0.03150X0.08465*%
%ADD20R,0.03347X0.03347*%
G04:AMPARAMS|DCode=21|XSize=33.86mil|YSize=9.84mil|CornerRadius=2.66mil|HoleSize=0mil|Usage=FLASHONLY|Rotation=270.000|XOffset=0mil|YOffset=0mil|HoleType=Round|Shape=RoundedRectangle|*
%AMROUNDEDRECTD21*
21,1,0.03386,0.00453,0,0,270.0*
21,1,0.02854,0.00984,0,0,270.0*
1,1,0.00532,-0.00226,-0.01427*
1,1,0.00532,-0.00226,0.01427*
1,1,0.00532,0.00226,0.01427*
1,1,0.00532,0.00226,-0.01427*
%
%ADD21ROUNDEDRECTD21*%
G04:AMPARAMS|DCode=22|XSize=33.86mil|YSize=9.84mil|CornerRadius=2.66mil|HoleSize=0mil|Usage=FLASHONLY|Rotation=180.000|XOffset=0mil|YOffset=0mil|HoleType=Round|Shape=RoundedRectangle|*
%AMROUNDEDRECTD22*
21,1,0.03386,0.00453,0,0,180.0*
21,1,0.02854,0.00984,0,0,180.0*
1,1,0.00532,-0.01427,0.00226*
1,1,0.00532,0.01427,0.00226*
1,1,0.00532,0.01427,-0.00226*
1,1,0.00532,-0.01427,-0.00226*
%
%ADD22ROUNDEDRECTD22*%
%ADD23R,0.03347X0.03347*%
G04:AMPARAMS|DCode=24|XSize=46.85mil|YSize=15.75mil|CornerRadius=1.97mil|HoleSize=0mil|Usage=FLASHONLY|Rotation=90.000|XOffset=0mil|YOffset=0mil|HoleType=Round|Shape=RoundedRectangle|*
%AMROUNDEDRECTD24*
21,1,0.04685,0.01181,0,0,90.0*
21,1,0.04291,0.01575,0,0,90.0*
1,1,0.00394,0.00591,0.02146*
1,1,0.00394,0.00591,-0.02146*
1,1,0.00394,-0.00591,-0.02146*
1,1,0.00394,-0.00591,0.02146*
%
%ADD24ROUNDEDRECTD24*%
G04:AMPARAMS|DCode=25|XSize=47.64mil|YSize=23.23mil|CornerRadius=5.81mil|HoleSize=0mil|Usage=FLASHONLY|Rotation=0.000|XOffset=0mil|YOffset=0mil|HoleType=Round|Shape=RoundedRectangle|*
%AMROUNDEDRECTD25*
21,1,0.04764,0.01161,0,0,0.0*
21,1,0.03602,0.02323,0,0,0.0*
1,1,0.01161,0.01801,-0.00581*
1,1,0.01161,-0.01801,-0.00581*
1,1,0.01161,-0.01801,0.00581*
1,1,0.01161,0.01801,0.00581*
%
%ADD25ROUNDEDRECTD25*%
%ADD26R,0.03150X0.02165*%
%ADD27R,0.02165X0.03150*%
%ADD28R,0.09331X0.13268*%
G04:AMPARAMS|DCode=29|XSize=57.87mil|YSize=18.9mil|CornerRadius=2.36mil|HoleSize=0mil|Usage=FLASHONLY|Rotation=270.000|XOffset=0mil|YOffset=0mil|HoleType=Round|Shape=RoundedRectangle|*
%AMROUNDEDRECTD29*
21,1,0.05787,0.01417,0,0,270.0*
21,1,0.05315,0.01890,0,0,270.0*
1,1,0.00472,-0.00709,-0.02657*
1,1,0.00472,-0.00709,0.02657*
1,1,0.00472,0.00709,0.02657*
1,1,0.00472,0.00709,-0.02657*
%
%ADD29ROUNDEDRECTD29*%
%ADD30R,0.06299X0.03150*%
%ADD31R,0.11811X0.08268*%
G04:AMPARAMS|DCode=32|XSize=33.07mil|YSize=10.63mil|CornerRadius=2.66mil|HoleSize=0mil|Usage=FLASHONLY|Rotation=270.000|XOffset=0mil|YOffset=0mil|HoleType=Round|Shape=RoundedRectangle|*
%AMROUNDEDRECTD32*
21,1,0.03307,0.00532,0,0,270.0*
21,1,0.02776,0.01063,0,0,270.0*
1,1,0.00532,-0.00266,-0.01388*
1,1,0.00532,-0.00266,0.01388*
1,1,0.00532,0.00266,0.01388*
1,1,0.00532,0.00266,-0.01388*
%
%ADD32ROUNDEDRECTD32*%
%ADD33R,0.03347X0.01378*%
%ADD34C,0.03937*%
%ADD35R,0.02402X0.02520*%
%ADD36R,0.02800X0.01750*%
%ADD60R,0.13780X0.13780*%
%ADD61R,0.05610X0.06398*%
%ADD62C,0.03937*%
%ADD63C,0.02189*%
%ADD64C,0.03000*%
%ADD65C,0.02000*%
%ADD66C,0.01402*%
%ADD67C,0.15748*%
%ADD68C,0.04134*%
%ADD69R,0.04134X0.04134*%
%ADD70C,0.02000*%
G36*
X83213Y147189D02*
X96896D01*
X96896Y117693D01*
X83213D01*
Y107425D01*
X96896D01*
Y50055D01*
X83213D01*
Y39787D01*
X96896D01*
X96896Y10291D01*
X83213D01*
Y1529D01*
X57653D01*
Y11630D01*
X52504D01*
Y1529D01*
X48992D01*
Y11630D01*
X43843D01*
Y1529D01*
X40331D01*
Y11630D01*
X35181D01*
Y1529D01*
X15331D01*
Y10291D01*
X1529D01*
Y39787D01*
X15331D01*
Y50055D01*
X1529D01*
Y83397D01*
X3972D01*
X4164Y82934D01*
X3941Y82712D01*
X3665Y82299D01*
X3619Y82068D01*
X3243Y81817D01*
X2969Y81408D01*
X2873Y80925D01*
Y78740D01*
X2843Y78666D01*
Y77870D01*
X2873Y77795D01*
Y75610D01*
X2969Y75128D01*
X3243Y74719D01*
X3652Y74446D01*
X4134Y74350D01*
X5551D01*
X5872Y74086D01*
Y73405D01*
X5989Y72820D01*
X6320Y72324D01*
X6681Y71963D01*
Y71728D01*
X6986Y70993D01*
X7548Y70430D01*
X8283Y70126D01*
X9079D01*
X9814Y70430D01*
X10377Y70993D01*
X10681Y71728D01*
Y71963D01*
X11042Y72324D01*
X11374Y72820D01*
X11490Y73405D01*
Y74086D01*
X11811Y74350D01*
X13228D01*
X13711Y74446D01*
X14120Y74719D01*
X14393Y75128D01*
X14489Y75610D01*
Y77795D01*
X14520Y77870D01*
Y78666D01*
X14489Y78740D01*
Y80925D01*
X14415Y81296D01*
X14488Y81362D01*
X14842Y81566D01*
X15185Y81337D01*
X15679Y81239D01*
X16132D01*
X16626Y81337D01*
X16890Y81514D01*
X17154Y81337D01*
X17648Y81239D01*
X17842D01*
Y80586D01*
X18147Y79851D01*
X18710Y79289D01*
X18728Y79197D01*
X18272Y78741D01*
X17996Y78328D01*
X17899Y77840D01*
Y77267D01*
X16707D01*
Y73517D01*
X21507D01*
Y76047D01*
X21922Y76324D01*
X21964Y76307D01*
X22760D01*
X23495Y76612D01*
X24058Y77174D01*
X24362Y77909D01*
Y78577D01*
X24641Y78856D01*
X24777Y79059D01*
X25390Y78805D01*
X26185D01*
X26920Y79110D01*
X27153Y79342D01*
X27567Y79049D01*
Y78618D01*
X27871Y77883D01*
X28211Y77543D01*
X28004Y77043D01*
X27642D01*
Y71697D01*
X27865D01*
X28272Y71472D01*
Y66323D01*
X32437D01*
Y71472D01*
X32844Y71697D01*
X32988D01*
Y74591D01*
X33608Y75211D01*
X33984Y75773D01*
X34116Y76437D01*
Y85198D01*
X34303Y85235D01*
X34722Y85515D01*
X35001Y85933D01*
X35100Y86427D01*
Y86880D01*
X35001Y87374D01*
X34871Y87568D01*
X35105Y88006D01*
X35555D01*
X36290Y88310D01*
X36853Y88873D01*
X37157Y89608D01*
Y90404D01*
X36853Y91139D01*
X36663Y91329D01*
X36518Y91810D01*
X36677Y91969D01*
X37081Y92373D01*
X37386Y93108D01*
Y93904D01*
X37081Y94639D01*
X36518Y95201D01*
X35783Y95506D01*
X35419D01*
X35345Y95553D01*
X35047Y96006D01*
X35100Y96270D01*
Y96723D01*
X35001Y97216D01*
X34835Y97466D01*
X34980Y97563D01*
X35901Y98484D01*
X36178Y98898D01*
X36274Y99385D01*
Y103722D01*
X36696Y104143D01*
X37000Y104878D01*
Y105673D01*
X36696Y106409D01*
X36133Y106971D01*
X35398Y107276D01*
X34602D01*
X33867Y106971D01*
X33484Y106588D01*
X33180Y106892D01*
X32445Y107197D01*
X31685D01*
Y107957D01*
X31381Y108692D01*
X30818Y109255D01*
X30083Y109559D01*
X29287D01*
X28552Y109255D01*
X27990Y108692D01*
X27966Y108636D01*
X27466D01*
X27444Y108692D01*
X26881Y109255D01*
X26146Y109559D01*
X25350D01*
X25054Y109757D01*
Y112346D01*
X25586Y112878D01*
X29721D01*
Y114591D01*
X30220Y114798D01*
X31323Y113696D01*
X31737Y113419D01*
X32224Y113322D01*
X32642D01*
Y112878D01*
X37988D01*
Y113697D01*
X38315D01*
X38802Y113794D01*
X39216Y114070D01*
X44265Y119119D01*
X48386D01*
X48874Y119216D01*
X49287Y119492D01*
X56964Y127170D01*
X57240Y127583D01*
X57337Y128071D01*
Y132225D01*
X57837Y132432D01*
X58098Y132172D01*
X58833Y131867D01*
X59629D01*
X59794Y131936D01*
X60041Y131567D01*
X60460Y131287D01*
X60953Y131189D01*
X61485D01*
X61979Y131287D01*
X62397Y131567D01*
X62677Y131985D01*
X62775Y132479D01*
Y135255D01*
X62677Y135749D01*
X62397Y136167D01*
X61979Y136447D01*
X61485Y136545D01*
X60953D01*
X60849Y136525D01*
X60433Y136802D01*
X60408Y136926D01*
X60132Y137340D01*
X59030Y138442D01*
X58616Y138718D01*
X58570Y138728D01*
X58125Y139055D01*
Y142258D01*
X59033Y143166D01*
X59629D01*
X59794Y143235D01*
X60041Y142866D01*
X60460Y142586D01*
X60953Y142488D01*
X61485D01*
X61979Y142586D01*
X62203Y142736D01*
X62428Y142586D01*
X62922Y142488D01*
X63453D01*
X63947Y142586D01*
X64366Y142866D01*
X64646Y143285D01*
X64744Y143779D01*
Y146554D01*
X64685Y146848D01*
Y147316D01*
X64569Y147902D01*
X64237Y148398D01*
X63433Y149202D01*
X63323Y149276D01*
Y154169D01*
X57976D01*
Y148823D01*
X59120D01*
Y148799D01*
X59237Y148214D01*
X59568Y147718D01*
X59620Y147666D01*
X59412Y147166D01*
X58833D01*
X58098Y146862D01*
X57535Y146299D01*
X57231Y145564D01*
Y144969D01*
X55949Y143687D01*
X55673Y143273D01*
X55576Y142786D01*
Y139583D01*
X54392Y138399D01*
X53918Y138633D01*
X53961Y138956D01*
Y141776D01*
X55016D01*
Y155951D01*
X69052D01*
Y153018D01*
X74201D01*
Y155951D01*
X83213D01*
Y147189D01*
D02*
G37*
G36*
X43685Y141776D02*
X43321Y141448D01*
X42759Y141018D01*
X42437Y140954D01*
X41914Y140604D01*
X41564Y140081D01*
X41442Y139464D01*
Y138303D01*
X41564Y137686D01*
X41914Y137163D01*
X42437Y136814D01*
X42759Y136750D01*
X43357Y136291D01*
X44080Y135992D01*
X44855Y135890D01*
X50894D01*
X51669Y135992D01*
X52373Y136283D01*
X53640D01*
X53686Y135802D01*
Y129347D01*
X47008Y122668D01*
X45886D01*
Y127718D01*
X41721D01*
Y122569D01*
X41988D01*
X42195Y122069D01*
X40349Y120222D01*
X39455D01*
X39060Y120616D01*
X38647Y120893D01*
X38159Y120990D01*
X37988D01*
Y121374D01*
X32642D01*
Y120990D01*
X32195D01*
X31708Y120893D01*
X31294Y120616D01*
X30182Y119504D01*
X29721Y119696D01*
Y121374D01*
X29183D01*
Y122531D01*
X30360D01*
Y127878D01*
X25014D01*
Y125076D01*
X24912Y124565D01*
Y121374D01*
X24374D01*
Y118727D01*
X22531D01*
X22043Y118630D01*
X21630Y118353D01*
X18941Y115665D01*
X18665Y115252D01*
X18568Y114764D01*
Y106758D01*
X18106Y106567D01*
X17939Y106734D01*
X17526Y107010D01*
X17038Y107107D01*
X15975D01*
X15606Y107425D01*
Y117693D01*
X1795D01*
X1529Y118083D01*
Y146799D01*
X1795Y147189D01*
X15606D01*
Y155951D01*
X24748D01*
Y151545D01*
X22795D01*
X21978Y151382D01*
X21285Y150919D01*
X18608Y148242D01*
X18145Y147549D01*
X17983Y146732D01*
Y144858D01*
X15969D01*
Y139709D01*
Y134787D01*
Y129866D01*
Y124945D01*
X24268D01*
Y129866D01*
Y134787D01*
Y139709D01*
Y141728D01*
X24748Y141776D01*
Y141776D01*
X25746D01*
X26155Y141557D01*
X26155Y141276D01*
Y138511D01*
X26114Y138305D01*
X26155Y138099D01*
Y136211D01*
X28043D01*
X28250Y136170D01*
X28456Y136211D01*
X31502D01*
Y136748D01*
X32886D01*
X33171Y136691D01*
X36774D01*
X37391Y136814D01*
X37913Y137163D01*
X38263Y137686D01*
X38385Y138303D01*
Y139464D01*
X38263Y140081D01*
X37913Y140604D01*
X37391Y140954D01*
X36774Y141076D01*
X33171D01*
X32886Y141019D01*
X31855D01*
X31751Y141123D01*
X31835Y141735D01*
X31911Y141776D01*
X36079D01*
Y155951D01*
X43685D01*
Y141776D01*
D02*
G37*
G36*
X7647Y103172D02*
X6134D01*
Y98480D01*
X6040Y98019D01*
X5811Y98019D01*
X2029D01*
X1875Y98019D01*
X1529Y98376D01*
Y107035D01*
X1795Y107425D01*
X7647D01*
Y103172D01*
D02*
G37*
G36*
X16357Y104557D02*
Y101703D01*
X16455Y101209D01*
X16735Y100790D01*
X17154Y100511D01*
X17648Y100412D01*
X18100D01*
X18594Y100511D01*
X18858Y100687D01*
X19122Y100511D01*
X19616Y100412D01*
X20069D01*
X20563Y100511D01*
X20827Y100687D01*
X21091Y100511D01*
X21585Y100412D01*
X22037D01*
X22531Y100511D01*
X22795Y100687D01*
X23059Y100511D01*
X23553Y100412D01*
X24006D01*
X24500Y100511D01*
X24764Y100687D01*
X25028Y100511D01*
X25522Y100412D01*
X25974D01*
X26468Y100511D01*
X26732Y100687D01*
X26996Y100511D01*
X27490Y100412D01*
X27943D01*
X28437Y100511D01*
X28701Y100687D01*
X28965Y100511D01*
X29459Y100412D01*
X29664D01*
Y100207D01*
X29762Y99713D01*
X29939Y99449D01*
X29762Y99185D01*
X29664Y98691D01*
Y98238D01*
X29762Y97744D01*
X29939Y97480D01*
X29762Y97216D01*
X29664Y96723D01*
Y96270D01*
X29762Y95776D01*
X29939Y95512D01*
X29762Y95248D01*
X29664Y94754D01*
Y94301D01*
X29762Y93807D01*
X29939Y93543D01*
X29762Y93279D01*
X29664Y92785D01*
Y92333D01*
X29762Y91839D01*
X29939Y91575D01*
X29762Y91311D01*
X29664Y90817D01*
Y90364D01*
X29762Y89870D01*
X29939Y89606D01*
X29762Y89342D01*
X29664Y88848D01*
Y88396D01*
X29762Y87902D01*
X29939Y87638D01*
X29762Y87374D01*
X29664Y86880D01*
Y86427D01*
X29762Y85933D01*
X30042Y85515D01*
X30461Y85235D01*
X30648Y85198D01*
Y81183D01*
X30232Y80905D01*
X29965Y81016D01*
X29291D01*
X28991Y81315D01*
Y81820D01*
X29135Y82036D01*
X29233Y82529D01*
Y85384D01*
X29135Y85878D01*
X28855Y86296D01*
X28437Y86576D01*
X27943Y86674D01*
X27490D01*
X26996Y86576D01*
X26732Y86400D01*
X26468Y86576D01*
X25974Y86674D01*
X25522D01*
X25028Y86576D01*
X24764Y86400D01*
X24500Y86576D01*
X24006Y86674D01*
X23553D01*
X23059Y86576D01*
X22795Y86400D01*
X22531Y86576D01*
X22037Y86674D01*
X21585D01*
X21091Y86576D01*
X20827Y86400D01*
X20563Y86576D01*
X20069Y86674D01*
X19616D01*
X19122Y86576D01*
X18858Y86400D01*
X18594Y86576D01*
X18100Y86674D01*
X17648D01*
X17154Y86576D01*
X16890Y86400D01*
X16626Y86576D01*
X16132Y86674D01*
X15926D01*
Y86880D01*
X15828Y87374D01*
X15652Y87638D01*
X15828Y87902D01*
X15926Y88396D01*
Y88848D01*
X15828Y89342D01*
X15652Y89606D01*
X15828Y89870D01*
X15926Y90364D01*
Y90817D01*
X15828Y91311D01*
X15652Y91575D01*
X15828Y91839D01*
X15926Y92333D01*
Y92785D01*
X15828Y93279D01*
X15652Y93543D01*
X15828Y93807D01*
X15926Y94301D01*
Y94754D01*
X15828Y95248D01*
X15652Y95512D01*
X15828Y95776D01*
X15926Y96270D01*
Y96723D01*
X15828Y97216D01*
X15652Y97480D01*
X15828Y97744D01*
X15926Y98238D01*
Y98691D01*
X15828Y99185D01*
X15652Y99449D01*
X15828Y99713D01*
X15926Y100207D01*
Y100660D01*
X15828Y101153D01*
X15548Y101572D01*
X15130Y101852D01*
X14636Y101950D01*
X14334D01*
X14207Y102035D01*
X13543Y102167D01*
X11480D01*
Y102833D01*
X11812D01*
Y104558D01*
X16356D01*
X16357Y104557D01*
D02*
G37*
%LPC*%
G36*
X74201Y151475D02*
X69052D01*
Y147309D01*
X71571D01*
X71620Y147236D01*
X71738Y147117D01*
Y139016D01*
X71855Y138431D01*
X72186Y137934D01*
X73555Y136565D01*
X74052Y136233D01*
X74551Y136134D01*
Y132911D01*
X74089Y132719D01*
X71096Y135712D01*
Y143901D01*
X70980Y144487D01*
X70648Y144983D01*
X69383Y146248D01*
X68887Y146579D01*
X68667Y146623D01*
X68583Y147048D01*
X68303Y147467D01*
X67884Y147746D01*
X67390Y147845D01*
X66859D01*
X66365Y147746D01*
X65946Y147467D01*
X65667Y147048D01*
X65568Y146554D01*
Y143779D01*
X65667Y143285D01*
X65946Y142866D01*
X66365Y142586D01*
X66859Y142488D01*
X67390D01*
X67537Y142517D01*
X68037Y142133D01*
Y135079D01*
X68154Y134494D01*
X68485Y133997D01*
X74551Y127932D01*
Y124945D01*
Y120024D01*
X82850D01*
Y124945D01*
Y129866D01*
Y134787D01*
Y139937D01*
X74797D01*
Y147751D01*
X74681Y148336D01*
X74349Y148832D01*
X74201Y148980D01*
Y151475D01*
D02*
G37*
G36*
X65422Y136545D02*
X64890D01*
X64397Y136447D01*
X63978Y136167D01*
X63698Y135749D01*
X63600Y135255D01*
Y132479D01*
X63698Y131985D01*
X63882Y131711D01*
Y130344D01*
X62483D01*
Y124997D01*
X63627D01*
Y122674D01*
X62581D01*
Y118508D01*
X67731D01*
Y122674D01*
X66685D01*
Y124997D01*
X67829D01*
Y130344D01*
X66431D01*
Y131711D01*
X66614Y131985D01*
X66712Y132479D01*
Y135255D01*
X66614Y135749D01*
X66334Y136167D01*
X65916Y136447D01*
X65422Y136545D01*
D02*
G37*
G36*
X62711Y117556D02*
X57365D01*
Y112209D01*
X57964D01*
X58075Y112095D01*
X58294Y111709D01*
X58227Y111375D01*
Y107083D01*
X58320Y106616D01*
X58584Y106221D01*
X58980Y105956D01*
X59447Y105863D01*
X60628D01*
X61095Y105956D01*
X61317Y106104D01*
X61540Y105956D01*
X62006Y105863D01*
X63188D01*
X63655Y105956D01*
X63877Y106104D01*
X64099Y105956D01*
X64565Y105863D01*
X65747D01*
X66214Y105956D01*
X66610Y106221D01*
X66874Y106616D01*
X66967Y107083D01*
Y107678D01*
X67741D01*
Y107125D01*
X72890D01*
Y111291D01*
X67741D01*
Y110737D01*
X66967D01*
Y111375D01*
X66874Y111842D01*
X66685Y112124D01*
Y112800D01*
X67731D01*
Y116965D01*
X62711D01*
Y117556D01*
D02*
G37*
G36*
X72890Y105582D02*
X67741D01*
Y103200D01*
X66967D01*
Y103816D01*
X66874Y104283D01*
X66610Y104679D01*
X66214Y104943D01*
X65747Y105036D01*
X64565D01*
X64099Y104943D01*
X63703Y104679D01*
X63438Y104283D01*
X63345Y103816D01*
Y99524D01*
X63438Y99057D01*
X63703Y98662D01*
X64099Y98397D01*
X64565Y98304D01*
X65747D01*
X66214Y98397D01*
X66610Y98662D01*
X66874Y99057D01*
X66967Y99524D01*
Y100141D01*
X68287D01*
Y96517D01*
X72452D01*
Y101417D01*
X72890D01*
Y105582D01*
D02*
G37*
G36*
X60628Y105036D02*
X59447D01*
X58980Y104943D01*
X58584Y104679D01*
X58320Y104283D01*
X58227Y103816D01*
Y99524D01*
X58320Y99057D01*
X58509Y98775D01*
Y97915D01*
X58342Y97749D01*
X58038Y97013D01*
Y96218D01*
X58342Y95483D01*
X58905Y94920D01*
X59640Y94616D01*
X60436D01*
X61171Y94920D01*
X61734Y95483D01*
X62038Y96218D01*
Y97013D01*
X61734Y97749D01*
X61567Y97915D01*
Y98775D01*
X61756Y99057D01*
X61849Y99524D01*
Y103816D01*
X61756Y104283D01*
X61491Y104679D01*
X61095Y104943D01*
X60628Y105036D01*
D02*
G37*
G36*
X81221Y92106D02*
X80039D01*
X79572Y92013D01*
X79176Y91749D01*
X78912Y91353D01*
X78819Y90886D01*
Y90270D01*
X71689D01*
Y91413D01*
X66343D01*
Y90270D01*
X63402D01*
Y90823D01*
X58252D01*
Y90270D01*
X52280D01*
Y91807D01*
X46146D01*
Y85673D01*
X52280D01*
Y87211D01*
X58252D01*
Y86658D01*
X63402D01*
Y87211D01*
X66343D01*
Y84561D01*
X63402D01*
Y85114D01*
X58252D01*
Y80949D01*
X63402D01*
Y81502D01*
X66343D01*
Y80752D01*
X71689D01*
Y81896D01*
X74406D01*
X76202Y80100D01*
X76698Y79768D01*
X77284Y79652D01*
X78819D01*
Y79035D01*
X78912Y78568D01*
X79176Y78173D01*
X79572Y77908D01*
X80039Y77815D01*
X81221D01*
X81687Y77908D01*
X81910Y78056D01*
X82131Y77908D01*
X82598Y77815D01*
X83780D01*
X84246Y77908D01*
X84469Y78056D01*
X84690Y77908D01*
X85158Y77815D01*
X86339D01*
X86806Y77908D01*
X87201Y78173D01*
X87466Y78568D01*
X87559Y79035D01*
Y79652D01*
X89094D01*
Y78508D01*
X94441D01*
Y83854D01*
X89094D01*
Y82710D01*
X87559D01*
Y83327D01*
X87466Y83794D01*
X87201Y84190D01*
X86806Y84454D01*
X86339Y84547D01*
X85158D01*
X84690Y84454D01*
X84469Y84306D01*
X84246Y84454D01*
X83780Y84547D01*
X82598D01*
X82131Y84454D01*
X81910Y84306D01*
X81687Y84454D01*
X81221Y84547D01*
X80039D01*
X79572Y84454D01*
X79176Y84190D01*
X78912Y83794D01*
X78819Y83327D01*
Y82710D01*
X77917D01*
X76121Y84507D01*
X75625Y84838D01*
X75039Y84955D01*
X71689D01*
Y87211D01*
X78819D01*
Y86594D01*
X78912Y86128D01*
X79176Y85732D01*
X79572Y85467D01*
X80039Y85374D01*
X81221D01*
X81687Y85467D01*
X82083Y85732D01*
X82348Y86128D01*
X82441Y86594D01*
Y90886D01*
X82348Y91353D01*
X82083Y91749D01*
X81687Y92013D01*
X81221Y92106D01*
D02*
G37*
G36*
X93651Y77144D02*
X89197D01*
X89000Y77105D01*
X88799D01*
X88614Y77028D01*
X88417Y76989D01*
X88250Y76877D01*
X88064Y76801D01*
X87922Y76659D01*
X87755Y76547D01*
X87644Y76380D01*
X87502Y76238D01*
X87425Y76052D01*
X87313Y75885D01*
X87274Y75688D01*
X87197Y75503D01*
Y75490D01*
X82070D01*
Y73186D01*
X81947Y72570D01*
Y68381D01*
X81555Y68119D01*
X81206Y67596D01*
X81083Y66979D01*
Y65818D01*
X81206Y65201D01*
X81555Y64678D01*
X82078Y64329D01*
X82695Y64206D01*
X83277D01*
X83521Y64043D01*
X84496Y63850D01*
X85471Y64043D01*
X85715Y64206D01*
X86297D01*
X86914Y64329D01*
X87437Y64678D01*
X87786Y65201D01*
X87909Y65818D01*
Y66979D01*
X87786Y67596D01*
X87437Y68119D01*
X87306Y68206D01*
X87289Y68635D01*
X87707Y68988D01*
X87887Y68952D01*
X87935Y68961D01*
X88064Y68832D01*
X88250Y68755D01*
X88417Y68644D01*
X88614Y68604D01*
X88799Y68528D01*
X89000D01*
X89197Y68489D01*
X93651D01*
X93848Y68528D01*
X94049D01*
X94235Y68604D01*
X94432Y68644D01*
X94599Y68755D01*
X94784Y68832D01*
X94926Y68974D01*
X95093Y69086D01*
X95205Y69253D01*
X95347Y69395D01*
X95424Y69580D01*
X95535Y69747D01*
X95574Y69944D01*
X95651Y70130D01*
Y70331D01*
X95690Y70528D01*
Y75105D01*
X95651Y75302D01*
Y75503D01*
X95574Y75688D01*
X95535Y75885D01*
X95424Y76052D01*
X95347Y76238D01*
X95205Y76380D01*
X95093Y76547D01*
X94926Y76659D01*
X94784Y76801D01*
X94599Y76877D01*
X94432Y76989D01*
X94235Y77028D01*
X94049Y77105D01*
X93848D01*
X93651Y77144D01*
D02*
G37*
G36*
X21507Y72317D02*
X16707D01*
Y68567D01*
X21088D01*
X21658Y67996D01*
X22071Y67720D01*
X22559Y67623D01*
X22563D01*
Y66323D01*
X26728D01*
Y71472D01*
X22563D01*
Y71349D01*
X22101Y71158D01*
X21916Y71343D01*
X21507Y71617D01*
Y72317D01*
D02*
G37*
G36*
X13228Y65257D02*
X11811D01*
X11329Y65161D01*
X11240Y65101D01*
X11152Y65161D01*
X10669Y65257D01*
X9252D01*
X8770Y65161D01*
X8681Y65101D01*
X8593Y65161D01*
X8110Y65257D01*
X6693D01*
X6211Y65161D01*
X5802Y64887D01*
X5528Y64478D01*
X5432Y63996D01*
Y58681D01*
X5499Y58348D01*
X5207Y57848D01*
X3836D01*
Y52699D01*
X8002D01*
Y55554D01*
X8303Y55855D01*
X8442Y56063D01*
X9009Y56102D01*
X9021Y56098D01*
X9059Y56039D01*
X9545Y55554D01*
Y52699D01*
X13710D01*
Y57516D01*
X13711Y57517D01*
X14120Y57790D01*
X14393Y58199D01*
X14489Y58681D01*
Y59605D01*
X16008D01*
Y58665D01*
X21354D01*
Y64012D01*
X16008D01*
Y63073D01*
X14489D01*
Y63996D01*
X14393Y64478D01*
X14120Y64887D01*
X13711Y65161D01*
X13228Y65257D01*
D02*
G37*
G36*
X58819Y80356D02*
X43425D01*
X42650Y80254D01*
X42227Y80079D01*
X41928Y79955D01*
X41308Y79479D01*
X36387Y74558D01*
X35911Y73938D01*
X35612Y73216D01*
X35510Y72441D01*
Y64350D01*
X26781Y55621D01*
X26754Y55587D01*
X25929D01*
Y53699D01*
X25903Y53504D01*
X25929Y53309D01*
Y51421D01*
X26754D01*
X26781Y51387D01*
X27401Y50911D01*
X28123Y50612D01*
X28898Y50510D01*
X29673Y50612D01*
X30395Y50911D01*
X31015Y51387D01*
X31049Y51421D01*
X31866D01*
Y52238D01*
X40621Y60993D01*
X41097Y61613D01*
X41396Y62335D01*
X41498Y63110D01*
Y71201D01*
X44665Y74368D01*
X57579D01*
X58694Y73253D01*
X58659Y72992D01*
X58761Y72217D01*
X59061Y71495D01*
X59536Y70875D01*
X60157Y70399D01*
X60879Y70100D01*
X61624Y70002D01*
X64909Y66716D01*
X64830Y66216D01*
X64138D01*
Y60870D01*
X65620D01*
Y58442D01*
X65505Y57865D01*
Y54262D01*
X65628Y53645D01*
X65978Y53123D01*
X66500Y52773D01*
X67117Y52650D01*
X67347D01*
X67756Y52569D01*
X68164Y52650D01*
X68278D01*
X68895Y52773D01*
X69418Y53123D01*
X69584Y53371D01*
X79003D01*
X79491Y53468D01*
X79904Y53745D01*
X82886Y56726D01*
X86297D01*
X86914Y56848D01*
X87437Y57198D01*
X87786Y57721D01*
X87909Y58337D01*
Y59499D01*
X87786Y60116D01*
X87437Y60638D01*
X86914Y60988D01*
X86297Y61111D01*
X82695D01*
X82078Y60988D01*
X81555Y60638D01*
X81206Y60116D01*
X81083Y59499D01*
Y58528D01*
X78475Y55920D01*
X70379D01*
X69891Y56005D01*
Y61682D01*
X69729Y62499D01*
X69525Y62804D01*
Y62965D01*
X69484Y63171D01*
Y63916D01*
X69525Y64122D01*
X69484Y64328D01*
Y66040D01*
X69962Y66270D01*
X71276Y64955D01*
X71659Y64700D01*
X71673Y64678D01*
X72196Y64329D01*
X72813Y64206D01*
X76415D01*
X77032Y64329D01*
X77555Y64678D01*
X77904Y65201D01*
X78027Y65818D01*
Y66979D01*
X77904Y67596D01*
X77555Y68119D01*
X77032Y68468D01*
X76415Y68591D01*
X74598D01*
X74547Y68601D01*
X73671D01*
X71474Y70798D01*
Y71618D01*
X71652Y72048D01*
X71754Y72822D01*
X71652Y73597D01*
X71433Y74126D01*
Y75496D01*
X70203D01*
X70087Y75585D01*
X69365Y75884D01*
X68590Y75986D01*
X64429D01*
X60936Y79479D01*
X60316Y79955D01*
X59594Y80254D01*
X58819Y80356D01*
D02*
G37*
G36*
X76415Y61111D02*
X72813D01*
X72196Y60988D01*
X71673Y60638D01*
X71324Y60116D01*
X71201Y59499D01*
Y58337D01*
X71324Y57721D01*
X71673Y57198D01*
X72196Y56848D01*
X72813Y56726D01*
X76415D01*
X77032Y56848D01*
X77555Y57198D01*
X77904Y57721D01*
X78027Y58337D01*
Y59499D01*
X77904Y60116D01*
X77555Y60638D01*
X77032Y60988D01*
X76415Y61111D01*
D02*
G37*
G36*
X60798Y59476D02*
X59637D01*
X59020Y59354D01*
X58497Y59004D01*
X58148Y58481D01*
X58025Y57865D01*
Y54262D01*
X58148Y53645D01*
X58497Y53123D01*
X59020Y52773D01*
X59637Y52650D01*
X60798D01*
X61415Y52773D01*
X61938Y53123D01*
X62287Y53645D01*
X62410Y54262D01*
Y57865D01*
X62287Y58481D01*
X61938Y59004D01*
X61415Y59354D01*
X60798Y59476D01*
D02*
G37*
G36*
Y49594D02*
X59637D01*
X59020Y49472D01*
X58497Y49122D01*
X58148Y48599D01*
X58025Y47983D01*
Y44380D01*
X58148Y43764D01*
X58497Y43241D01*
X59020Y42891D01*
X59637Y42769D01*
X60798D01*
X61415Y42891D01*
X61938Y43241D01*
X62287Y43764D01*
X62410Y44380D01*
Y47983D01*
X62287Y48599D01*
X61938Y49122D01*
X61415Y49472D01*
X60798Y49594D01*
D02*
G37*
G36*
X68278D02*
X67117D01*
X66500Y49472D01*
X65978Y49122D01*
X65628Y48599D01*
X65505Y47983D01*
Y44380D01*
X65628Y43764D01*
X65660Y43716D01*
Y42043D01*
X64827D01*
Y37878D01*
X65660D01*
Y36630D01*
X65102D01*
Y27239D01*
X58452D01*
X57702Y27989D01*
Y31323D01*
X57653Y31569D01*
Y36630D01*
X52504D01*
Y26165D01*
X52757D01*
X52799Y25958D01*
X53351Y25131D01*
X54908Y23574D01*
X54716Y23112D01*
X52973D01*
X49411Y26673D01*
Y31398D01*
X49309Y32173D01*
X49010Y32895D01*
X48992Y32918D01*
Y36630D01*
X43843D01*
Y32918D01*
X43824Y32895D01*
X43525Y32173D01*
X43423Y31398D01*
Y25433D01*
X43525Y24658D01*
X43824Y23936D01*
X44300Y23316D01*
X48963Y18653D01*
X48772Y18191D01*
X47539D01*
X40750Y24980D01*
Y31398D01*
X40648Y32173D01*
X40349Y32895D01*
X40331Y32918D01*
Y36630D01*
X35181D01*
Y32918D01*
X35163Y32895D01*
X34864Y32173D01*
X34762Y31398D01*
Y23740D01*
X34864Y22965D01*
X35163Y22243D01*
X35639Y21623D01*
X44182Y13080D01*
X44802Y12604D01*
X45524Y12305D01*
X46299Y12203D01*
X78701D01*
X79476Y12305D01*
X80198Y12604D01*
X80221Y12622D01*
X82850D01*
Y17543D01*
Y22465D01*
Y27386D01*
Y32535D01*
X74551D01*
Y27239D01*
X70252D01*
Y36630D01*
X69931D01*
Y37878D01*
X70764D01*
Y42043D01*
X69931D01*
Y44864D01*
X69900Y45017D01*
Y46084D01*
X69890Y46135D01*
Y47983D01*
X69767Y48599D01*
X69418Y49122D01*
X68895Y49472D01*
X68278Y49594D01*
D02*
G37*
G36*
X19842Y56498D02*
X19068Y56396D01*
X18346Y56097D01*
X17725Y55621D01*
X17699Y55587D01*
X16874D01*
Y53699D01*
X16848Y53504D01*
Y37457D01*
X15693D01*
Y32307D01*
Y27386D01*
Y22465D01*
Y17543D01*
X23992D01*
Y22465D01*
Y27386D01*
Y32307D01*
Y37457D01*
X22837D01*
Y53504D01*
X22811Y53699D01*
Y55587D01*
X21986D01*
X21960Y55621D01*
X21340Y56097D01*
X20617Y56396D01*
X19842Y56498D01*
D02*
G37*
G36*
X46656Y133596D02*
X43053D01*
X42437Y133473D01*
X41914Y133124D01*
X41564Y132601D01*
X41442Y131984D01*
Y130823D01*
X41564Y130206D01*
X41914Y129683D01*
X42437Y129334D01*
X43053Y129211D01*
X46656D01*
X47272Y129334D01*
X47795Y129683D01*
X48145Y130206D01*
X48267Y130823D01*
Y131984D01*
X48145Y132601D01*
X47795Y133124D01*
X47272Y133473D01*
X46656Y133596D01*
D02*
G37*
G36*
X36774D02*
X33171D01*
X32555Y133473D01*
X32032Y133124D01*
X31682Y132601D01*
X31560Y131984D01*
Y130823D01*
X31682Y130206D01*
X32032Y129683D01*
X32555Y129334D01*
X33171Y129211D01*
X36774D01*
X37391Y129334D01*
X37913Y129683D01*
X38263Y130206D01*
X38385Y130823D01*
Y131984D01*
X38263Y132601D01*
X37913Y133124D01*
X37391Y133473D01*
X36774Y133596D01*
D02*
G37*
G36*
X40177Y127718D02*
X36012D01*
Y122569D01*
X40177D01*
Y127718D01*
D02*
G37*
%LPD*%
D12*
X69567Y135079D02*
Y143901D01*
X68302Y145166D02*
X69567Y143901D01*
Y135079D02*
X77126Y127520D01*
X78417Y137646D02*
X78701Y137362D01*
X73268Y139016D02*
X74637Y137646D01*
X73268Y139016D02*
Y147751D01*
X74637Y137646D02*
X78417D01*
X72119Y149392D02*
X72701Y148809D01*
X71627Y149392D02*
X72119D01*
X72701Y148317D02*
Y148809D01*
Y148317D02*
X73268Y147751D01*
X60038Y96616D02*
Y101670D01*
X60827Y83031D02*
X69488D01*
X69882Y83425D02*
X75039D01*
X69488Y83031D02*
X69882Y83425D01*
X75039D02*
X77284Y81181D01*
X80630D01*
X70369Y101268D02*
Y103445D01*
X70316Y103499D02*
X70369Y103445D01*
X65156Y101670D02*
X69968D01*
X70369Y99092D02*
Y101268D01*
X69968Y101670D02*
X70369Y101268D01*
X65156Y109229D02*
X65177Y109208D01*
X70316D01*
X33036Y117161D02*
X35950D01*
X33031Y117165D02*
X33036Y117161D01*
X35950D02*
X35954Y117156D01*
X85748Y81181D02*
X91767D01*
X69016Y88740D02*
X80630D01*
X60827D02*
X69016D01*
X49213D02*
X60827D01*
X65156Y120591D02*
Y127671D01*
X60038Y109229D02*
Y114882D01*
X65156Y109229D02*
Y114882D01*
X15905Y100433D02*
X18347Y97992D01*
Y97874D02*
Y97992D01*
X15905Y100433D02*
Y103130D01*
X10465Y85250D02*
X10656Y85442D01*
X78701Y122598D02*
Y127520D01*
X65079Y140424D02*
Y143465D01*
X64172Y139517D02*
X65079Y140424D01*
X60650Y148799D02*
X61328Y148121D01*
X63156Y145198D02*
X63188Y145166D01*
X63156Y145198D02*
Y147316D01*
X62352Y148121D02*
X63156Y147316D01*
X61328Y148121D02*
X62352D01*
X60650Y148799D02*
Y151496D01*
X67125Y145166D02*
X68302D01*
X77126Y127520D02*
X78701D01*
X3492Y100499D02*
X4021Y101028D01*
Y105408D01*
X4661Y91543D02*
X4835D01*
X6540Y93248D01*
X3487Y90369D02*
X4661Y91543D01*
X6540Y93248D02*
Y97641D01*
X5661Y98519D02*
X6540Y97641D01*
X5472Y98519D02*
X5661D01*
X3492Y100499D02*
X5472Y98519D01*
X29685Y84291D02*
Y86890D01*
X28543Y88032D02*
X29685Y86890D01*
X8914Y90258D02*
X11214Y92559D01*
X7442Y86680D02*
X8143Y87381D01*
Y86357D02*
Y87381D01*
X8802Y88041D01*
X7442Y85656D02*
X8143Y86357D01*
X8802Y88041D02*
Y90369D01*
X7442Y85656D02*
Y86680D01*
X8681Y72126D02*
X9961Y73405D01*
X7402D02*
X8681Y72126D01*
X7402Y73405D02*
Y78268D01*
X63188Y133867D02*
Y138532D01*
X64172Y139123D02*
X66477Y136818D01*
X64172Y139123D02*
Y139517D01*
X67125Y133867D02*
Y136232D01*
X66539Y136818D02*
X67125Y136232D01*
X66477Y136818D02*
X66539D01*
X63188Y138532D02*
X64172Y139517D01*
X9961Y73405D02*
Y78268D01*
X29664Y84270D02*
X29685Y84291D01*
X11214Y92559D02*
X13543D01*
D15*
X67756Y55474D02*
Y56005D01*
Y55474D02*
X68584Y54646D01*
X79003D01*
X83276Y58918D01*
X67698Y56063D02*
X67756Y56005D01*
X83276Y58918D02*
X84496D01*
X56063Y128071D02*
Y136457D01*
X57147Y137541D02*
X58128D01*
X56063Y136457D02*
X57147Y137541D01*
X58128D02*
X59231Y136438D01*
Y133867D02*
Y136438D01*
X38159Y119715D02*
X38927Y118947D01*
X40876D02*
X43323Y121394D01*
X38927Y118947D02*
X40876D01*
X32195Y119715D02*
X38159D01*
X43323Y121394D02*
X47535D01*
X36329Y114971D02*
X38315D01*
X43737Y120394D02*
X48386D01*
X38315Y114971D02*
X43737Y120394D01*
X48386D02*
X56063Y128071D01*
X24365Y116452D02*
X30369D01*
X32224Y114597D01*
X22531Y117452D02*
X29932D01*
X32195Y119715D01*
X19842Y114764D02*
X22531Y117452D01*
X21811Y113898D02*
X24365Y116452D01*
X32224Y114597D02*
X35954D01*
X36329Y114971D01*
X65156Y127671D02*
Y133867D01*
X27716Y80787D02*
X29488Y79016D01*
X29567D01*
X27716Y103130D02*
Y105591D01*
Y102795D02*
Y103130D01*
X19173Y75459D02*
Y77840D01*
X21811Y80478D01*
X19842Y80984D02*
Y83957D01*
X21811Y80478D02*
Y84291D01*
X19842Y83957D02*
Y84291D01*
Y80984D02*
X19842Y80984D01*
X25768Y80825D02*
X25787Y80805D01*
X25768Y80825D02*
Y83937D01*
X25748Y83957D02*
X25768Y83937D01*
X22362Y78380D02*
X23740Y79758D01*
Y84252D01*
X22362Y78307D02*
Y78380D01*
X23740Y84252D02*
X23779Y84291D01*
X27716Y80787D02*
Y84291D01*
X34251Y93219D02*
X35099D01*
X35386Y93506D01*
X33591Y92559D02*
X34251Y93219D01*
X35000Y99385D02*
Y105276D01*
X32047Y98465D02*
X34079D01*
X35000Y99385D01*
X32047Y92559D02*
X33591D01*
X47535Y121394D02*
X54961Y128819D01*
Y137165D01*
X56850Y139055D01*
Y142786D02*
X59231Y145166D01*
X56850Y139055D02*
Y142786D01*
X10656Y85442D02*
Y87303D01*
X11885Y88532D01*
X34752Y90006D02*
X35157D01*
X34399Y90358D02*
X34752Y90006D01*
X32280Y90358D02*
X34399D01*
X19842Y102795D02*
Y114764D01*
X21811Y102795D02*
Y113898D01*
X25502Y114597D02*
X27687D01*
X23779Y112874D02*
X25502Y114597D01*
X23779Y105433D02*
Y112874D01*
X21015Y70442D02*
X22559Y68898D01*
X19107Y70442D02*
X21015D01*
X22559Y68898D02*
X24646D01*
X19107Y75392D02*
X19173Y75459D01*
X29685Y102795D02*
Y107559D01*
X5919Y55273D02*
X7402Y56756D01*
X9961Y56941D02*
X11628Y55273D01*
X32047Y100433D02*
Y105197D01*
X25748Y102795D02*
Y107559D01*
X23779Y102795D02*
Y105433D01*
X10154Y105833D02*
X17038D01*
X9730Y105408D02*
X10154Y105833D01*
X4843Y78268D02*
Y81811D01*
X5748Y82717D01*
X10827D01*
X12520Y78268D02*
Y82835D01*
X13976Y84291D01*
X15905D01*
X10827Y82717D02*
X13543Y85433D01*
Y86654D01*
X17038Y105833D02*
X17874Y104997D01*
X65156Y133867D02*
X65207Y133816D01*
X59231Y145166D02*
X61219D01*
X59231Y133867D02*
X61219D01*
X11885Y88532D02*
X13453D01*
X7402Y56756D02*
Y61339D01*
X9961Y56941D02*
Y61339D01*
X9666Y95360D02*
X10499Y94528D01*
X13543D01*
X9666Y95360D02*
Y95445D01*
X17874Y102795D02*
Y104997D01*
D17*
X19842Y53504D02*
D03*
X28898D02*
D03*
X58740Y39961D02*
D03*
X67795D02*
D03*
D18*
X67698Y56063D02*
D03*
X63958D02*
D03*
X60217D02*
D03*
Y46181D02*
D03*
X67698D02*
D03*
D19*
X67677Y31398D02*
D03*
X55079D02*
D03*
X46417D02*
D03*
X37756D02*
D03*
Y6398D02*
D03*
X46417D02*
D03*
X55079D02*
D03*
X67677D02*
D03*
D20*
X66811Y63543D02*
D03*
X61496D02*
D03*
X79428Y72816D02*
D03*
X84743D02*
D03*
X68759Y72822D02*
D03*
X74074D02*
D03*
X65156Y127671D02*
D03*
X59841D02*
D03*
X65965Y151496D02*
D03*
X60650D02*
D03*
X30315Y74370D02*
D03*
X25000D02*
D03*
X33002Y125205D02*
D03*
X27687D02*
D03*
X3492Y100499D02*
D03*
X8807D02*
D03*
X23996Y61339D02*
D03*
X18681D02*
D03*
X3487Y90369D02*
D03*
X8802D02*
D03*
D21*
X15905Y103130D02*
D03*
X17874D02*
D03*
X19842D02*
D03*
X21811D02*
D03*
X23779D02*
D03*
X25748D02*
D03*
X27716D02*
D03*
X29685D02*
D03*
Y83957D02*
D03*
X27716D02*
D03*
X25748D02*
D03*
X23779D02*
D03*
X21811D02*
D03*
X19842D02*
D03*
X17874D02*
D03*
X15905D02*
D03*
D22*
X32382Y100433D02*
D03*
Y98465D02*
D03*
Y96496D02*
D03*
Y94528D02*
D03*
Y92559D02*
D03*
Y90591D02*
D03*
Y88622D02*
D03*
Y86654D02*
D03*
X13209D02*
D03*
Y88622D02*
D03*
Y90591D02*
D03*
Y92559D02*
D03*
Y94528D02*
D03*
Y96496D02*
D03*
Y98465D02*
D03*
Y100433D02*
D03*
D23*
X91767Y86496D02*
D03*
Y81181D02*
D03*
X69016Y88740D02*
D03*
Y83425D02*
D03*
X60038Y114882D02*
D03*
Y120197D02*
D03*
X28828Y138884D02*
D03*
Y133569D02*
D03*
X50967Y133642D02*
D03*
Y138956D02*
D03*
D24*
X85748Y81181D02*
D03*
X83189D02*
D03*
X80630D02*
D03*
Y88740D02*
D03*
X83189D02*
D03*
X85748D02*
D03*
X60038Y101670D02*
D03*
X62597D02*
D03*
X65156D02*
D03*
X62597Y109229D02*
D03*
X60038D02*
D03*
X65156D02*
D03*
D25*
X84496Y66399D02*
D03*
Y58918D02*
D03*
X74614D02*
D03*
Y62658D02*
D03*
Y66399D02*
D03*
X44855Y138884D02*
D03*
Y131404D02*
D03*
X34973D02*
D03*
Y135144D02*
D03*
Y138884D02*
D03*
D26*
X60827Y83031D02*
D03*
Y88740D02*
D03*
X70316Y103499D02*
D03*
Y109208D02*
D03*
X65156Y114882D02*
D03*
Y120591D02*
D03*
X71627Y149392D02*
D03*
Y155101D02*
D03*
D27*
X70369Y99092D02*
D03*
X76078D02*
D03*
X5919Y55273D02*
D03*
X11628D02*
D03*
X43803Y125143D02*
D03*
X24646Y68898D02*
D03*
X30354D02*
D03*
X3957Y95445D02*
D03*
X9666D02*
D03*
X4021Y105408D02*
D03*
X9730D02*
D03*
X38094Y125143D02*
D03*
D28*
X49350Y149409D02*
D03*
X30413D02*
D03*
D29*
X12520Y78268D02*
D03*
X9961D02*
D03*
X7402D02*
D03*
X4843D02*
D03*
Y61339D02*
D03*
X7402D02*
D03*
X9961D02*
D03*
X12520D02*
D03*
D30*
X78701Y122598D02*
D03*
Y127520D02*
D03*
Y132441D02*
D03*
Y137362D02*
D03*
Y142283D02*
D03*
X20118Y142283D02*
D03*
Y137362D02*
D03*
Y132441D02*
D03*
Y127520D02*
D03*
Y122598D02*
D03*
X78701Y34882D02*
D03*
Y29961D02*
D03*
Y25039D02*
D03*
Y20118D02*
D03*
Y15197D02*
D03*
X19842D02*
D03*
Y20118D02*
D03*
Y25039D02*
D03*
Y29961D02*
D03*
Y34882D02*
D03*
D31*
X90118Y152323D02*
D03*
Y112559D02*
D03*
X8701Y112559D02*
D03*
Y152323D02*
D03*
X90118Y5158D02*
D03*
Y44921D02*
D03*
X8425D02*
D03*
Y5158D02*
D03*
D32*
X67125Y133867D02*
D03*
X65156D02*
D03*
X63188D02*
D03*
X61219D02*
D03*
Y145166D02*
D03*
X63188D02*
D03*
X65156D02*
D03*
X67125D02*
D03*
D33*
X35315Y114567D02*
D03*
Y117126D02*
D03*
Y119685D02*
D03*
X27047D02*
D03*
Y114567D02*
D03*
D34*
X91424Y72816D02*
D03*
X91654Y62953D02*
D03*
D35*
X3702Y85656D02*
D03*
X7442D02*
D03*
D36*
X19107Y75392D02*
D03*
Y70442D02*
D03*
D60*
X22795Y93543D02*
D03*
D61*
X64172Y139517D02*
D03*
D62*
X28898Y53504D02*
X38504Y63110D01*
Y72441D01*
X63189Y72992D02*
X68590D01*
X61654D02*
X63189D01*
X68590D02*
X68759Y72822D01*
X58819Y77362D02*
X63189Y72992D01*
X43425Y77362D02*
X58819D01*
X51732Y20118D02*
X78701D01*
X46417Y25433D02*
X51732Y20118D01*
X46417Y25433D02*
Y31398D01*
X46299Y15197D02*
X78701D01*
X37756Y23740D02*
Y31398D01*
Y23740D02*
X46299Y15197D01*
X38504Y72441D02*
X43425Y77362D01*
X50967Y138956D02*
Y147793D01*
X49350Y149409D02*
X50967Y147793D01*
X44855Y138884D02*
X50894D01*
X50967Y138956D01*
X74074Y72822D02*
X79422D01*
X79428Y72816D01*
X19842Y34882D02*
Y53504D01*
D63*
X67756Y56005D02*
Y61682D01*
X67390Y62048D02*
X67756Y61682D01*
X67765Y44894D02*
Y46084D01*
Y44894D02*
X67795Y44864D01*
Y31516D02*
Y44864D01*
X67100Y63833D02*
Y67545D01*
Y63833D02*
X67390Y64122D01*
X61654Y72992D02*
X67100Y67545D01*
X66811Y63543D02*
X67100Y63833D01*
X66811Y63543D02*
X67390Y62965D01*
X67756Y54705D02*
Y55474D01*
X72787Y66465D02*
X74547D01*
X69338Y69914D02*
Y72244D01*
X74547Y66465D02*
X74614Y66399D01*
X69338Y69914D02*
X72787Y66465D01*
X68759Y72822D02*
X69338Y72244D01*
X67390Y62048D02*
Y62965D01*
X27047Y119685D02*
Y124565D01*
X27687Y125205D01*
X20118Y142283D02*
Y146732D01*
X22795Y149409D01*
X30413D01*
X28250Y138305D02*
X28828Y138884D01*
Y133569D02*
X31167D01*
X32742Y135144D01*
X34973D01*
X20118Y132441D02*
Y137362D01*
Y142283D01*
X28828Y138884D02*
X34973D01*
D64*
X55154Y26933D02*
Y31323D01*
X55079Y31398D02*
X55154Y31323D01*
X57396Y24690D02*
X75749D01*
X55154Y26933D02*
X57396Y24690D01*
X78626Y24965D02*
X78701Y25039D01*
X75749Y24690D02*
X76023Y24965D01*
X78626D01*
X84496Y72570D02*
X84743Y72816D01*
X84496Y66399D02*
Y72570D01*
X77304Y62658D02*
X79428Y64782D01*
X74614Y62658D02*
X77304D01*
X79428Y64782D02*
Y72816D01*
D65*
X91424Y70528D02*
Y71672D01*
X93651Y72816D02*
Y73961D01*
X91424Y71672D02*
X93651D01*
X89197D02*
X91424D01*
X89197Y73961D02*
X93651D01*
Y70528D02*
Y71672D01*
X91424D02*
Y72816D01*
X93651Y71672D02*
Y72816D01*
Y73961D02*
Y75105D01*
X87694Y134766D02*
X92148D01*
X89921Y132478D02*
X92148D01*
X87694D02*
X89921D01*
X87694Y135911D02*
X89921D01*
X92148Y132478D02*
Y133622D01*
Y131333D02*
Y132478D01*
X89921Y135911D02*
X92148D01*
X89921Y131333D02*
Y132478D01*
X92148Y133622D02*
Y134766D01*
X89921Y132478D02*
Y133622D01*
X92148Y134766D02*
Y135911D01*
X89921Y131333D02*
X92148D01*
X87694D02*
X89921D01*
X87694Y134766D02*
Y135911D01*
Y133622D02*
Y134766D01*
X89921Y133622D02*
X92148D01*
X87694D02*
X89921D01*
X87694Y131333D02*
Y132478D01*
Y133622D01*
X91424Y75105D02*
X93651D01*
X89197D02*
X91424D01*
Y70528D02*
X93651D01*
X89197D02*
X91424D01*
X89197Y72816D02*
Y73961D01*
Y71672D02*
Y72816D01*
X18611Y89567D02*
X20838D01*
X18611D02*
Y90711D01*
Y88423D02*
Y89567D01*
Y90711D02*
X20838D01*
X89197Y73961D02*
Y75105D01*
X91424Y72816D02*
X93651D01*
X89197D02*
X91424D01*
X89197Y70528D02*
Y71672D01*
X86062Y72816D02*
X89197D01*
X84743D02*
X86062D01*
X87887Y70991D01*
X89348Y18192D02*
X93802D01*
X91575Y15903D02*
X93802D01*
X89348D02*
X91575D01*
X89348Y19336D02*
X91575D01*
X93802Y15903D02*
Y17047D01*
Y14759D02*
Y15903D01*
X91575Y19336D02*
X93802D01*
X91575Y14759D02*
Y15903D01*
X93802Y17047D02*
Y18192D01*
X91575Y15903D02*
Y17047D01*
X93802Y18192D02*
Y19336D01*
X91575Y14759D02*
X93802D01*
X89348D02*
X91575D01*
X89348Y18192D02*
Y19336D01*
Y17047D02*
Y18192D01*
X91575Y17047D02*
X93802D01*
X89348D02*
X91575D01*
X89348Y14759D02*
Y15903D01*
Y17047D01*
X6119Y15391D02*
Y16535D01*
Y14247D02*
Y15391D01*
Y16535D02*
X8347D01*
X10573D01*
X6119D02*
Y17680D01*
Y18824D01*
Y14247D02*
X8347D01*
X10573D01*
Y17680D02*
Y18824D01*
X8347Y15391D02*
Y16535D01*
X10573D02*
Y17680D01*
X8347Y14247D02*
Y15391D01*
Y18824D02*
X10573D01*
Y14247D02*
Y15391D01*
Y16535D01*
X6119Y18824D02*
X8347D01*
X6119Y15391D02*
X8347D01*
X10573D01*
X6119Y17680D02*
X10573D01*
X6356Y133226D02*
Y134370D01*
Y132081D02*
Y133226D01*
Y134370D02*
X8583D01*
X10810D01*
X6356D02*
Y135514D01*
Y136659D01*
Y132081D02*
X8583D01*
X10810D01*
Y135514D02*
Y136659D01*
X8583Y133226D02*
Y134370D01*
X10810D02*
Y135514D01*
X8583Y132081D02*
Y133226D01*
Y136659D02*
X10810D01*
Y132081D02*
Y133226D01*
Y134370D01*
X6356Y136659D02*
X8583D01*
X6356Y133226D02*
X8583D01*
X10810D01*
X6356Y135514D02*
X10810D01*
D66*
X13209Y100433D02*
X13543D01*
X8807D02*
X13209D01*
X12520Y61339D02*
X18681D01*
X30315Y74370D02*
X31287Y75343D01*
Y75343D01*
X32382Y76437D02*
Y86654D01*
X31287Y75343D02*
X32382Y76437D01*
X30335Y68917D02*
X30354Y68898D01*
X30315Y74370D02*
X30335Y74350D01*
Y68917D02*
Y74350D01*
D67*
X47244Y110236D02*
D03*
Y47244D02*
D03*
D68*
X49213Y68740D02*
D03*
D69*
Y88740D02*
D03*
D70*
X67756Y56005D02*
D03*
Y61714D02*
D03*
X78701Y29961D02*
D03*
X60217Y46181D02*
D03*
X89197Y72816D02*
D03*
X91424Y75105D02*
D03*
Y72816D02*
D03*
Y70528D02*
D03*
X93651Y72816D02*
D03*
Y75105D02*
D03*
Y70528D02*
D03*
X89197Y75105D02*
D03*
Y70528D02*
D03*
X43803Y125143D02*
D03*
X50967Y133642D02*
D03*
X44855Y131404D02*
D03*
X80630Y81181D02*
D03*
X60038Y96616D02*
D03*
X71627Y155101D02*
D03*
X92148Y135911D02*
D03*
Y131333D02*
D03*
X87694Y135911D02*
D03*
X89921D02*
D03*
Y133622D02*
D03*
Y131333D02*
D03*
X87694D02*
D03*
X92148Y133622D02*
D03*
X87694D02*
D03*
X33031Y117165D02*
D03*
X78701Y132441D02*
D03*
X91767Y81181D02*
D03*
X60038Y114882D02*
D03*
X29567Y79016D02*
D03*
X27126Y93543D02*
D03*
X18347D02*
D03*
X22795D02*
D03*
X18347Y89095D02*
D03*
Y97874D02*
D03*
X27126Y89095D02*
D03*
Y97874D02*
D03*
X22795D02*
D03*
Y89095D02*
D03*
X4021Y105408D02*
D03*
X19842Y80984D02*
D03*
X25787Y80805D02*
D03*
X22362Y78307D02*
D03*
X35386Y93506D02*
D03*
X35000Y105276D02*
D03*
X10465Y85250D02*
D03*
X35157Y90006D02*
D03*
X38094Y125143D02*
D03*
X33002Y125205D02*
D03*
X60650Y151496D02*
D03*
X64172Y139517D02*
D03*
X65965Y151496D02*
D03*
X27687Y125205D02*
D03*
X23779Y105433D02*
D03*
X23996Y61339D02*
D03*
X18602Y61260D02*
D03*
X8807Y100433D02*
D03*
X3487Y90369D02*
D03*
X27716Y105591D02*
D03*
X29685Y107559D02*
D03*
X3957Y95445D02*
D03*
X84743Y72816D02*
D03*
X78701Y137362D02*
D03*
X93802Y19336D02*
D03*
Y14759D02*
D03*
X89348Y19336D02*
D03*
X91575D02*
D03*
Y17047D02*
D03*
Y14759D02*
D03*
X89348D02*
D03*
X93802Y17047D02*
D03*
X89348D02*
D03*
X6119Y16535D02*
D03*
X10573D02*
D03*
X6119Y14247D02*
D03*
X8347D02*
D03*
Y16535D02*
D03*
Y18824D02*
D03*
X6119D02*
D03*
X10573Y14247D02*
D03*
Y18824D02*
D03*
X6356Y134370D02*
D03*
X10810D02*
D03*
X6356Y132081D02*
D03*
X8583D02*
D03*
Y134370D02*
D03*
Y136659D02*
D03*
X6356D02*
D03*
X10810Y132081D02*
D03*
Y136659D02*
D03*
X19842Y20118D02*
D03*
Y25039D02*
D03*
X11628Y55273D02*
D03*
X5919D02*
D03*
X20118Y127520D02*
D03*
X30354Y68898D02*
D03*
X9666Y95445D02*
D03*
X32047Y105197D02*
D03*
X25748Y107559D02*
D03*
X8681Y72126D02*
D03*
X59231Y145166D02*
D03*
Y133867D02*
D03*
X3702Y85656D02*
D03*
X12520Y78268D02*
D03*
X28828Y133569D02*
D03*
Y138884D02*
D03*
X4843Y78268D02*
D03*
M02*
